<svg xmlns="http://www.w3.org/2000/svg" width="879" height="203" viewBox="0 0 879 203">
  <g fill="none" fill-rule="evenodd">
    <path fill="#FFFFFF" fill-rule="nonzero" d="M197.666667,58.7011494 L217.551724,58.7011494 L217.551724,72.2068966 L197.666667,72.2068966 L197.666667,58.7011494 Z M197.666667,78.4137931 L217.551724,78.4137931 L217.551724,130.137931 L197.666667,130.137931 L197.666667,78.4137931 Z"/>
    <path fill="#FFFFFF" d="M230.137931 78.4137931L248.701149 78.4137931 248.701149 85.9425287C250.902771 83.1820041 253.639536 80.8948506 256.747126 79.2183908 259.848976 77.8131286 263.227831 77.1255707 266.632184 77.2068966 270.052073 77.0332919 273.45334 77.8090194 276.45977 79.4482759 278.943529 81.0348221 280.934183 83.2842612 282.206897 85.9425287 284.626359 83.1505476 287.526611 80.8147741 290.770115 79.045977 293.758697 77.7474644 296.99555 77.1197111 300.252874 77.2068966 305.112246 76.9580248 309.850543 78.7740243 313.298851 82.2068966 316.763163 86.5790577 318.428184 92.108571 317.954023 97.6666667L317.954023 130.482759 298.413793 130.482759 298.413793 100.712644C298.557275 98.8636563 298.071166 97.0204935 297.034483 95.4827586 295.97135 93.7814324 294.097991 92.7576199 292.091954 92.7816092 289.889791 92.6984101 287.771277 93.6305563 286.344828 95.3103448 284.748018 97.7184066 283.999744 100.590161 284.218391 103.471264L284.218391 130.482759 264.62069 130.482759 264.62069 101.747126C264.705848 100.18421 264.570418 98.617089 264.218391 97.091954 263.829176 95.840561 263.067258 94.7377855 262.034483 93.9310345 260.957927 93.1744432 259.672119 92.7726281 258.356322 92.7816092 256.139293 92.6856353 254.007702 93.6448512 252.609195 95.3678161 250.895199 97.8342676 250.10191 100.82436 250.367816 103.816092L250.367816 130.482759 230.137931 130.482759 230.137931 78.4137931zM330.310345 78.4137931L348.873563 78.4137931 348.873563 85.9425287C351.075185 83.1820041 353.81195 80.8948506 356.91954 79.2183908 360.021389 77.8131286 363.400245 77.1255707 366.804598 77.2068966 370.224487 77.0332919 373.625754 77.8090194 376.632184 79.4482759 379.09845 81.0551874 381.084255 83.299147 382.37931 85.9425287 384.818525 83.1245756 387.761472 80.7858095 391.057471 79.045977 394.064833 77.7427877 397.32141 77.1150137 400.597701 77.2068966 405.437438 76.9744536 410.151612 78.789202 413.586207 82.2068966 417.05052 86.5790577 418.71554 92.108571 418.241379 97.6666667L418.241379 130.482759 398.356322 130.482759 398.356322 100.712644C398.499804 98.8636563 398.013695 97.0204935 396.977011 95.4827586 395.913879 93.7814324 394.04052 92.7576199 392.034483 92.7816092 389.828998 92.6807967 387.703064 93.6162078 386.287356 95.3103448 384.640904 97.6977992 383.869452 100.580591 384.103448 103.471264L384.103448 130.482759 364.333333 130.482759 364.333333 101.747126C364.418492 100.18421 364.283062 98.617089 363.931034 97.091954 363.54182 95.840561 362.779902 94.7377855 361.747126 93.9310345 360.674075 93.167357 359.385917 92.7648076 358.068966 92.7816092 355.853703 92.6947787 353.726018 93.652237 352.321839 95.3678161 350.628083 97.8417634 349.855293 100.83124 350.137931 103.816092L350.137931 130.482759 330.310345 130.482759 330.310345 78.4137931zM484.735632 130.482759L466.172414 130.482759 466.172414 121.862069C463.924942 124.856417 461.08912 127.359763 457.83908 129.218391 454.594038 130.761393 451.028378 131.509985 447.436782 131.402299 442.653385 131.632479 437.989751 129.862797 434.563218 126.517241 431.131182 122.262012 429.464699 116.851088 429.908046 111.402299L429.908046 78.4137931 449.908046 78.4137931 449.908046 107.149425C449.666798 109.586696 450.298116 112.03051 451.689655 114.045977 452.974976 115.466216 454.834916 116.227101 456.747126 116.114943 458.988277 116.142277 461.113768 115.122042 462.494253 113.356322 464.285642 110.430697 465.072658 107.000115 464.735632 103.586207L464.735632 78.4137931 484.62069 78.4137931 484.735632 130.482759zM496.804598 78.4137931L515.310345 78.4137931 515.310345 86.862069C517.563753 83.8364591 520.421034 81.3118754 523.701149 79.4482759 526.913459 77.8641634 530.466076 77.0944297 534.045977 77.2068966 538.837865 76.9919064 543.502709 78.7828734 546.91954 82.1494253 550.351577 86.404655 552.018059 91.8155789 551.574713 97.2643678L551.574713 130.482759 531.632184 130.482759 531.632184 101.747126C531.872262 99.2919089 531.241634 96.8304262 529.850575 94.7931034 528.518459 93.4118463 526.651779 92.6777588 524.735632 92.7816092 522.494481 92.7542748 520.368991 93.7745101 518.988506 95.5402299 517.196619 98.4868398 516.410047 101.935652 516.747126 105.367816L516.747126 130.482759 496.804598 130.482759 496.804598 78.4137931z"/>
    <path fill="#FFFFFF" fill-rule="nonzero" d="M564.16092,58.7011494 L584.045977,58.7011494 L584.045977,72.2068966 L564.16092,72.2068966 L564.16092,58.7011494 Z M564.16092,78.4137931 L584.045977,78.4137931 L584.045977,130.137931 L564.16092,130.137931 L564.16092,78.4137931 Z"/>
    <path fill="#FFFFFF" d="M618.873563,78.4137931 L628.298851,78.4137931 L628.298851,92.954023 L618.873563,92.954023 L618.873563,130.482759 L598.931034,130.482759 L598.931034,92.954023 L591.517241,92.954023 L591.517241,78.4137931 L598.931034,78.4137931 L598.931034,76.0574713 C598.952178,73.7234865 599.182991,71.3961218 599.62069,69.1034483 C599.950705,66.8333804 600.839377,64.680821 602.206897,62.8390805 C603.599393,61.123125 605.396563,59.7801853 607.436782,58.9310345 C610.623102,57.7945077 613.999679,57.2870452 617.37931,57.4367816 C622.456119,57.5800888 627.521221,58.0021807 632.551724,58.7011494 L630.367816,70.7126437 C628.471698,70.3512057 626.550036,70.1398228 624.62069,70.0804598 C623.272745,69.9787552 621.926658,70.3002087 620.770115,71 C619.888205,71.7272215 619.29676,72.7469548 619.103448,73.8735632 C618.96762,75.3839256 618.96762,76.9034308 619.103448,78.4137931"/>
    <path fill="#FFFFFF" d="M629.908046,78.4137931 L650.885057,78.4137931 L661.574713,112.896552 L671.517241,78.4137931 L691.114943,78.4137931 L670.54023,133.758621 C669.109297,138.503606 666.657304,142.877962 663.356322,146.574713 C658.867459,150.032619 653.259651,151.710868 647.609195,151.287356 C643.163629,151.152976 638.730254,150.749942 634.333333,150.08046 L632.781609,136.229885 C635.869811,137.186513 639.089147,137.65196 642.321839,137.609195 C644.363658,137.731141 646.387353,137.164506 648.068966,136 C649.805438,134.463465 651.07917,132.473259 651.747126,130.252874 L629.908046,78.4137931 Z"/>
    <rect width="21.207" height="19.885" x="687.322" y="110.31" fill="#FFFFFF"/>
    <path fill="#F0F0F0" d="M720.712644,78.4137931 L739.275862,78.4137931 L739.275862,85.9425287 C741.477484,83.1820041 744.214249,80.8948506 747.321839,79.2183908 C750.423688,77.8131286 753.802544,77.1255707 757.206897,77.2068966 C760.626786,77.0332919 764.028053,77.8090194 767.034483,79.4482759 C769.500749,81.0551874 771.486554,83.299147 772.781609,85.9425287 C775.169741,83.1413149 778.053012,80.8035276 781.287356,79.045977 C784.275938,77.7474644 787.512791,77.1197111 790.770115,77.2068966 C795.629487,76.9580248 800.367785,78.7740243 803.816092,82.2068966 C807.280405,86.5790577 808.945425,92.108571 808.471264,97.6666667 L808.471264,130.482759 L788.758621,130.482759 L788.758621,100.712644 C788.902103,98.8636563 788.415994,97.0204935 787.37931,95.4827586 C786.316178,93.7814324 784.442819,92.7576199 782.436782,92.7816092 C780.227916,92.6624626 778.09413,93.6013285 776.689655,95.3103448 C775.043203,97.6977992 774.271751,100.580591 774.505747,103.471264 L774.505747,130.482759 L754.62069,130.482759 L754.62069,101.747126 C754.705848,100.18421 754.570418,98.617089 754.218391,97.091954 C753.807407,95.8512828 753.049529,94.7543536 752.034483,93.9310345 C750.957927,93.1744432 749.672119,92.7726281 748.356322,92.7816092 C746.139293,92.6856353 744.007702,93.6448512 742.609195,95.3678161 C740.895199,97.8342676 740.10191,100.82436 740.367816,103.816092 L740.367816,130.482759 L720.482759,130.482759 L720.712644,78.4137931 Z"/>
    <path fill="#F0F0F0" fill-rule="nonzero" d="M878.068966,109.218391 L838.241379,109.218391 C838.346809,111.803948 839.25025,114.29343 840.827586,116.344828 C842.682205,118.572712 845.45884,119.823258 848.356322,119.735632 C850.367503,119.792453 852.355616,119.295425 854.103448,118.298851 C855.455176,117.421037 856.641859,116.312168 857.609195,115.022989 L877.149425,116.804598 C874.729859,121.596497 870.978047,125.587786 866.344828,128.298851 C860.625058,130.852109 854.381804,132.014103 848.126437,131.689655 C842.578805,131.931484 837.045859,130.950466 831.91954,128.816092 C827.844129,126.730804 824.453092,123.519293 822.149425,119.563218 C819.478573,115.065385 818.124487,109.907911 818.241379,104.678161 C817.722211,97.1716364 820.490692,89.8099917 825.827586,84.5057471 C831.704687,79.2353361 839.440605,76.5256964 847.321839,76.9770115 C853.369257,76.704959 859.395297,77.8668425 864.908046,80.3678161 C869.089562,82.5456087 872.500368,85.9564153 874.678161,90.137931 C877.12594,95.3216613 878.289014,101.018753 878.068966,106.747126 L878.068966,109.218391 Z M857.83908,99.7356322 C857.762096,96.7070113 856.669052,93.7922278 854.735632,91.4597701 C852.966639,89.7614071 850.575745,88.8674207 848.126437,88.9885057 C845.136824,88.9084647 842.299498,90.3056325 840.54023,92.7241379 C839.18959,94.8235649 838.41647,97.2420429 838.298851,99.7356322 L857.83908,99.7356322 Z"/>
    <path fill="#FFFFFF" d="M108.298851,55.6551724 C108.298851,68.7640001 97.6720461,79.3908046 84.5632184,79.3908046 C71.4543907,79.3908046 60.8275862,68.7640001 60.8275862,55.6551724 C60.8275862,42.5463447 71.4543907,31.9195402 84.5632184,31.9195402 C90.8582994,31.9195402 96.8955504,34.4202514 101.346845,38.8715459 C105.798139,43.3228404 108.298851,49.3600914 108.298851,55.6551724"/>
    <path fill="#FFFFFF" d="M84.5632184,0.367816092 C40.7441799,0.464953476 4.24162581,33.9847972 0.418524612,77.6368472 C-3.40457658,121.288897 26.7155302,160.643637 69.8505747,168.356322 L62.6091954,141.804598 C35.2755087,131.233131 19.3572924,102.682767 24.7343022,73.8734963 C30.1113121,45.0642251 55.2564557,24.1779948 84.5632184,24.1779948 C113.869981,24.1779948 139.015125,45.0642251 144.392135,73.8734963 C149.769144,102.682767 133.850928,131.233131 106.517241,141.804598 L99.2758621,168.356322 C142.410907,160.643637 172.531013,121.288897 168.707912,77.6368472 C164.884811,33.9847972 128.382257,0.464953476 84.5632184,0.367816092"/>
    <path fill="#FFFFFF" d="M108.298851,111.804598 C108.280142,102.846393 103.219471,94.6618382 95.2137138,90.642183 C87.2079568,86.6225278 77.6210751,87.4526115 70.4253705,92.7884908 C63.2296659,98.1243701 59.6510886,107.056958 61.1724138,115.885057 L60.8275862,115.885057 L84.5632184,202.781609 L108.298851,116.229885 L107.954023,116.229885 C108.185173,114.882061 108.300537,113.516926 108.298851,112.149425"/>
  </g>
</svg>
