<svg xmlns="http://www.w3.org/2000/svg" width="545" height="541" viewBox="0 0 545 541">
  <g fill="none" fill-rule="evenodd" transform="translate(10 10)">
    <ellipse cx="262.5" cy="260.5" fill="#443266" stroke="#FFFFFF" stroke-width="20" rx="262.5" ry="260.5"/>
    <g transform="translate(97 155)">
      <path fill="#FFFFFF" d="M347,194.075931 C347,205.145174 339.429395,214 329.96553,214 L17.0344703,214 C7.5706054,214 0,205.145174 0,194.075931 L0,19.9240693 C0,8.85482577 7.5706054,0 17.0344703,0 L329.334714,0 C338.798578,0 346.369184,8.85482577 346.369184,19.9240693 L346.369184,194.075931 L347,194.075931 Z"/>
      <rect width="146" height="141" x="22" y="33" fill="#97B8BF"/>
      <path fill="#00233F" d="M122,65.3006265 C122,78.9501044 111.30922,90 98.1033427,90 L83.0103343,90 C69.804457,90 61,77.0004177 61,63.3501044 C61,49.7006265 69.804457,38 83.0103343,38 L98.1033427,38 C111.30922,38 122,49.0498956 122,62.6993735 L122,65.3006265 Z"/>
      <rect width="39" height="33" x="72" y="102" fill="#F9BDA0"/>
      <polygon fill="#E28F71" points="111 135 92.8 135 72 102 111 102"/>
      <path fill="#FCCCB9" d="M122,74.5351671 C122,98.2279691 107.318695,120 92,120 C76.6804845,120 62,98.2279691 62,74.5351671 C62,50.8423651 76.6813049,47 92,47 C107.318695,47 122,50.8415422 122,74.5351671 Z"/>
      <path fill="#F9BDA0" d="M93,47 C108.830166,47 124,50.8423651 124,74.5351671 C124,98.2279691 108.829318,120 93,120"/>
      <path fill="#00233F" d="M101,45.5 C101,48.7504177 98.3796588,52 95.1033902,52 L87.8966098,52 C84.6203412,52 82,48.7495823 82,45.5 C82,42.2495823 84.6203412,39 87.8966098,39 L95.1033902,39 C98.3788168,39 101,42.2504177 101,45.5 Z"/>
      <polygon fill="#0C537A" points="73.11 125 21 143.621 21 186 92 186"/>
      <polygon fill="#00233F" points="71.807 125 28.166 150.042 21 186 92 186"/>
      <polygon fill="#D6D6D6" points="71.54 121 59 126.172 67.58 149.444 92 185 92 134.576"/>
      <polygon fill="#FFFFFF" points="71.789 121 92 134.186 68 148"/>
      <polygon fill="#0C537A" points="113.947 125 168 143.621 168 186 94 186"/>
      <polygon fill="#00233F" points="113.304 125 156.417 150.042 168 186 94 186"/>
      <polygon fill="#D6D6D6" points="114.729 121 127 126.228 119.25 149.752 96 187 97.291 134.723"/>
      <polygon fill="#FFFFFF" points="114.561 123 93 135.887 119 150"/>
      <polygon fill="#0C537A" points="86.636 137.25 89.819 141.8 86 178.85 91.091 186 93 186 93 134"/>
      <polygon fill="#00233F" points="99.153 137.25 96.692 141.8 101 178.85 96.077 186 93 186 93 134"/>
      <g fill="#97B8BF" transform="translate(193 38)">
        <path d="M132.515617 3.80675581C132.515617 6.37596512 129.960704 7.01909302 126.766241 7.01909302L6.02851235 7.01909302C2.83404938 7.01909302.279135802 6.3767907.279135802 3.80675581.279135802 1.23754651 2.83404938.594418605 6.02851235.594418605L126.766241.594418605C129.960704.594418605 132.515617 1.23672093 132.515617 3.80675581zM132.515617 35.9268256C132.515617 38.4960349 129.960704 39.1391628 126.766241 39.1391628L6.02851235 39.1391628C2.83404938 39.1391628.279135802 38.4968605.279135802 35.9268256.279135802 33.3576163 2.83404938 32.7144884 6.02851235 32.7144884L126.766241 32.7144884C129.960704 32.7144884 132.515617 33.3567907 132.515617 35.9268256zM132.515617 71.258407C132.515617 73.8276163 129.960704 77.6822558 126.766241 77.6822558L6.02851235 77.6822558C2.83404938 77.6822558.279135802 73.8276163.279135802 71.258407.279135802 68.6891977 2.83404938 64.8345581 6.02851235 64.8345581L126.766241 64.8345581C129.960704 64.8345581 132.515617 68.6891977 132.515617 71.258407zM132.515617 103.378477C132.515617 105.947686 129.960704 109.802326 126.766241 109.802326L6.02851235 109.802326C2.83404938 109.802326.279135802 105.947686.279135802 103.378477.279135802 100.809267 2.83404938 96.9546279 6.02851235 96.9546279L126.766241 96.9546279C129.960704 96.9546279 132.515617 100.808442 132.515617 103.378477zM132.515617 138.710058C132.515617 141.279267 129.960704 141.922395 126.766241 141.922395L6.02851235 141.922395C2.83404938 141.922395.279135802 141.280093.279135802 138.710058.279135802 136.140849 2.83404938 135.497721 6.02851235 135.497721L126.766241 135.497721C129.960704 135.498547 132.515617 136.140849 132.515617 138.710058z"/>
      </g>
    </g>
  </g>
</svg>
