<?xml version="1.0" encoding="UTF-8"?>
<svg xmlns="http://www.w3.org/2000/svg" xmlns:xlink="http://www.w3.org/1999/xlink" width="36pt" height="36.000001pt" viewBox="0 0 36 36.000001" version="1.2">
<defs>
<clipPath id="clip1">
  <path d="M 8 3.503906 L 27.703125 3.503906 L 27.703125 31.234375 L 8 31.234375 Z M 8 3.503906 "/>
</clipPath>
</defs>
<g id="surface1">
<g clip-path="url(#clip1)" clip-rule="nonzero">
<path style=" stroke:none;fill-rule:nonzero;fill:rgb(5.879211%,80.389404%,53.729248%);fill-opacity:1;" d="M 10.957031 3.511719 C 9.324219 3.511719 8 4.839844 8 6.480469 L 8 28.253906 C 8 29.894531 9.324219 31.222656 10.957031 31.222656 L 24.746094 31.222656 C 26.378906 31.222656 27.703125 29.894531 27.703125 28.253906 L 27.703125 6.480469 C 27.703125 4.839844 26.378906 3.511719 24.746094 3.511719 Z M 10.957031 4.5 L 24.746094 4.5 C 25.835938 4.5 26.71875 5.386719 26.71875 6.480469 L 26.71875 28.253906 C 26.71875 29.347656 25.835938 30.234375 24.746094 30.234375 L 10.957031 30.234375 C 9.867188 30.234375 8.984375 29.347656 8.984375 28.253906 L 8.984375 6.480469 C 8.984375 5.386719 9.867188 4.5 10.957031 4.5 Z M 10.957031 4.5 "/>
</g>
<path style=" stroke:none;fill-rule:nonzero;fill:rgb(5.879211%,80.389404%,53.729248%);fill-opacity:1;" d="M 24.03125 6.03125 C 26.101562 7.347656 26.710938 10.101562 25.402344 12.179688 C 24.089844 14.253906 21.351562 14.871094 19.28125 13.554688 C 17.214844 12.238281 16.601562 9.484375 17.914062 7.40625 C 18 7.265625 18.097656 7.132812 18.203125 7 L 17.472656 6.222656 L 19.6875 6.363281 L 19.6875 8.59375 L 18.882812 7.734375 C 17.753906 9.269531 18.074219 11.441406 19.609375 12.578125 C 21.136719 13.714844 23.296875 13.390625 24.429688 11.851562 C 25.5625 10.3125 25.238281 8.144531 23.707031 7.007812 C 23.640625 6.957031 23.574219 6.910156 23.503906 6.867188 C 23.273438 6.71875 23.210938 6.410156 23.359375 6.183594 C 23.503906 5.957031 23.804688 5.890625 24.03125 6.03125 Z M 24.03125 6.03125 "/>
<path style=" stroke:none;fill-rule:nonzero;fill:rgb(5.879211%,80.389404%,53.729248%);fill-opacity:1;" d="M 20.804688 7.289062 C 20.808594 7.015625 21.03125 6.796875 21.300781 6.796875 C 21.574219 6.796875 21.789062 7.019531 21.792969 7.289062 L 21.792969 9.945312 L 23.269531 9.945312 C 23.542969 9.945312 23.761719 10.167969 23.761719 10.441406 C 23.761719 10.714844 23.542969 10.933594 23.269531 10.933594 L 21.792969 10.933594 C 21.25 10.933594 20.804688 10.492188 20.804688 9.945312 Z M 20.804688 7.289062 "/>
<path style=" stroke:none;fill-rule:nonzero;fill:rgb(5.879211%,80.389404%,53.729248%);fill-opacity:1;" d="M 10.957031 8.460938 L 14.894531 8.460938 L 14.894531 9.449219 L 10.957031 9.449219 Z M 10.957031 8.460938 "/>
<path style=" stroke:none;fill-rule:nonzero;fill:rgb(5.879211%,80.389404%,53.729248%);fill-opacity:1;" d="M 10.957031 12.417969 L 16.867188 12.417969 L 16.867188 13.410156 L 10.957031 13.410156 Z M 10.957031 12.417969 "/>
<path style=" stroke:none;fill-rule:nonzero;fill:rgb(5.879211%,80.389404%,53.729248%);fill-opacity:1;" d="M 10.957031 16.378906 L 16.867188 16.378906 L 16.867188 17.367188 L 10.957031 17.367188 Z M 10.957031 16.378906 "/>
<path style=" stroke:none;fill-rule:nonzero;fill:rgb(5.879211%,80.389404%,53.729248%);fill-opacity:1;" d="M 10.957031 20.335938 L 16.867188 20.335938 L 16.867188 21.328125 L 10.957031 21.328125 Z M 10.957031 20.335938 "/>
<path style=" stroke:none;fill-rule:nonzero;fill:rgb(5.879211%,80.389404%,53.729248%);fill-opacity:1;" d="M 10.957031 24.296875 L 16.867188 24.296875 L 16.867188 25.285156 L 10.957031 25.285156 Z M 10.957031 24.296875 "/>
</g>
</svg>
