<svg xmlns="http://www.w3.org/2000/svg" width="546" height="541" viewBox="0 0 546 541">
  <g fill="none" fill-rule="evenodd" transform="translate(10.625 10)">
    <ellipse cx="262.5" cy="260.5" fill="#443266" stroke="#FFFFFF" stroke-width="20" rx="262.5" ry="260.5"/>
    <g fill="#FFFFFF" transform="translate(115 99)">
      <path d="M106.405229 167.33924C106.405229 163.641138 103.407473 160.645161 99.7086286 160.645161L76.3400326 160.645161C72.6454192 160.645161 69.6470588 163.641138 69.6470588 167.33924L69.6470588 190.719228C69.6470588 194.422169 72.6454192 197.419355 76.3400326 197.419355L99.7086286 197.419355C103.407473 197.419355 106.405229 194.422169 106.405229 190.719228L106.405229 167.33924zM166.379085 167.33924C166.379085 163.641138 163.380429 160.645161 159.688473 160.645161L136.314549 160.645161C132.619571 160.645161 129.620915 163.641138 129.620915 167.33924L129.620915 190.719228C129.620915 194.422169 132.619571 197.419355 136.314549 197.419355L159.688473 197.419355C163.380429 197.419355 166.379085 194.422169 166.379085 190.719228L166.379085 167.33924zM226.352941 167.33924C226.352941 163.641138 223.354581 160.645161 219.659967 160.645161L196.291371 160.645161C192.592527 160.645161 189.594771 163.641138 189.594771 167.33924L189.594771 190.719228C189.594771 194.422169 192.592527 197.419355 196.291371 197.419355L219.659967 197.419355C223.354581 197.419355 226.352941 194.422169 226.352941 190.719228L226.352941 167.33924zM106.405229 225.408046C106.405229 221.703531 103.407473 218.709677 99.7086286 218.709677L76.3400326 218.709677C72.6454192 218.709677 69.6470588 221.703531 69.6470588 225.408046L69.6470588 248.786107C69.6470588 252.486994 72.6454192 255.483871 76.3400326 255.483871L99.7086286 255.483871C103.407473 255.483871 106.405229 252.486389 106.405229 248.786107L106.405229 225.408046zM166.379085 225.408046C166.379085 221.703531 163.380429 218.709677 159.688473 218.709677L136.314549 218.709677C132.619571 218.709677 129.620915 221.703531 129.620915 225.408046L129.620915 248.786107C129.620915 252.486994 132.619571 255.483871 136.314549 255.483871L159.688473 255.483871C163.380429 255.483871 166.379085 252.486389 166.379085 248.786107L166.379085 225.408046zM226.352941 225.408046C226.352941 221.703531 223.354581 218.709677 219.662989 218.709677L196.291371 218.709677C192.592527 218.709677 189.594771 221.703531 189.594771 225.408046L189.594771 248.786107C189.594771 252.486994 192.592527 255.483871 196.291371 255.483871L219.662989 255.483871C223.354581 255.483871 226.352941 252.486389 226.352941 248.786107L226.352941 225.408046z"/>
      <path fill-rule="nonzero" d="M269.653129,33.0336937 L269.653129,69.3739351 C269.653129,85.799355 256.226376,99.0356956 239.677959,99.0356956 L220.76876,99.0356956 C204.219102,99.0356956 190.614376,85.799355 190.614376,69.3739351 L190.614376,32.9032258 L105.385624,32.9032258 L105.385624,69.3739351 C105.385624,85.799355 91.781518,99.0356956 75.234341,99.0356956 L56.3214212,99.0356956 C39.7736241,99.0356956 26.3474913,85.799355 26.3474913,69.3739351 L26.3474913,33.0336937 C11.8845243,33.4663303 0,45.3432197 0,59.9414732 L0,272.912519 C0,287.785248 12.1468334,300 27.1331783,300 L268.866822,300 C283.830842,300 296,287.760016 296,272.912519 L296,59.9414732 C296,45.3432197 284.116096,33.4663303 269.653129,33.0336937 Z M260.870425,259.650331 C260.870425,266.077723 255.619282,271.292132 249.14031,271.292132 L46.3431337,271.292132 C39.8641611,271.292132 34.6130182,266.077723 34.6130182,259.650331 L34.6130182,149.643097 C34.6130182,143.213244 39.8635409,137.998835 46.3431337,137.998835 L249.13969,137.998835 C255.618662,137.998835 260.869805,143.213244 260.869805,149.643097 L260.870425,259.650331 Z"/>
      <path d="M56.5619738 79.3548387L74.9935817 79.3548387C80.5880838 79.3548387 85.124183 74.8284771 85.124183 69.2376998L85.124183 10.120803C85.124183 4.52941505 80.5880838 0 74.9935817 0L56.5619738 0C50.9668607 0 46.4313725 4.52941505 46.4313725 10.120803L46.4313725 69.2376998C46.4313725 74.8284771 50.9668607 79.3548387 56.5619738 79.3548387zM221.006927 79.3548387L239.440573 79.3548387C245.032027 79.3548387 249.568627 74.8284771 249.568627 69.2376998L249.568627 10.120803C249.569239 4.52941505 245.032638 0 239.440573 0L221.006927 0C215.412418 0 210.875817 4.52941505 210.875817 10.120803L210.875817 69.2376998C210.875817 74.8284771 215.412418 79.3548387 221.006927 79.3548387z"/>
    </g>
  </g>
</svg>
