<svg xmlns="http://www.w3.org/2000/svg" width="546" height="541" viewBox="0 0 546 541">
  <g fill="none" fill-rule="evenodd" transform="translate(10.75 10)">
    <ellipse cx="262.5" cy="260.5" fill="#443266" stroke="#FFFFFF" stroke-width="20" rx="262.5" ry="260.5"/>
    <path fill="#FFFFFF" fill-rule="nonzero" d="M290.007805,90.7095521 L276.721949,104 L197,24.2988165 L210.285856,11.0071297 C224.961941,-3.66904324 248.761248,-3.66904324 263.438572,11.0071297 L290.007805,37.5799725 C304.664065,52.2480925 304.664065,76.0346181 290.007805,90.7095521 Z M103.748385,249.970171 C100.083872,253.635051 100.083872,259.570524 103.748385,263.236023 C107.414754,266.921326 113.352725,266.921326 117.017238,263.236023 L263,117.278848 L249.715058,104 L103.748385,249.970171 Z M37.7498269,183.981324 C34.083391,187.649579 34.083391,193.583029 37.7498269,197.250665 C41.4144064,200.916445 47.3524855,200.916445 51.0189214,197.250665 L197,51.2711982 L183.735237,38 L37.7498269,183.981324 Z M210.446569,64 L64.489943,209.955753 C57.1607406,217.270835 57.1793033,229.162948 64.489943,236.492262 C71.8222391,243.822195 83.6949901,243.856227 91.043374,236.472462 L237,90.5439348 L210.446569,64 Z M90.7459187,276.999622 C86.2296072,272.489459 84.0527114,266.773811 83.2426023,260.884266 C81.3228741,261.179892 79.3894469,261.455024 77.4143,261.455024 C67.3256085,261.455024 57.8502585,257.521828 50.713079,250.403198 C43.5758995,243.266558 39.6480223,233.828877 39.6480223,223.767648 C39.6480223,221.933026 39.9238704,220.144985 40.182906,218.362532 C34.0787557,217.533413 28.4366354,214.866566 24.0106127,210.452046 C23.5859436,210.031586 23.4396134,209.460829 23.052928,209 L0,301 L92,278.029345 C91.5946341,277.661055 91.1357176,277.385302 90.7459187,276.999622 Z" transform="translate(119 114)"/>
  </g>
</svg>
