<?xml version="1.0" encoding="UTF-8"?>
<svg xmlns="http://www.w3.org/2000/svg" xmlns:xlink="http://www.w3.org/1999/xlink" width="36pt" height="36.000001pt" viewBox="0 0 36 36.000001" version="1.2">
<defs>
<clipPath id="clip1">
  <path d="M 4.574219 4.085938 L 31.574219 4.085938 L 31.574219 31.085938 L 4.574219 31.085938 Z M 4.574219 4.085938 "/>
</clipPath>
<clipPath id="clip2">
  <path d="M 27 12 L 31.574219 12 L 31.574219 19 L 27 19 Z M 27 12 "/>
</clipPath>
<clipPath id="clip3">
  <path d="M 28 4.085938 L 31.574219 4.085938 L 31.574219 10 L 28 10 Z M 28 4.085938 "/>
</clipPath>
</defs>
<g id="surface1">
<path style=" stroke:none;fill-rule:nonzero;fill:rgb(5.879211%,80.389404%,53.729248%);fill-opacity:1;" d="M 7.289062 27.492188 L 8.1875 27.492188 L 8.1875 28.390625 L 7.289062 28.390625 Z M 7.289062 27.492188 "/>
<path style=" stroke:none;fill-rule:nonzero;fill:rgb(5.879211%,80.389404%,53.729248%);fill-opacity:1;" d="M 12.683594 23.898438 L 13.582031 23.898438 L 13.582031 24.796875 L 12.683594 24.796875 Z M 12.683594 23.898438 "/>
<path style=" stroke:none;fill-rule:nonzero;fill:rgb(5.879211%,80.389404%,53.729248%);fill-opacity:1;" d="M 12.683594 25.695312 L 13.582031 25.695312 L 13.582031 26.59375 L 12.683594 26.59375 Z M 12.683594 25.695312 "/>
<path style=" stroke:none;fill-rule:nonzero;fill:rgb(5.879211%,80.389404%,53.729248%);fill-opacity:1;" d="M 12.683594 27.492188 L 13.582031 27.492188 L 13.582031 28.390625 L 12.683594 28.390625 Z M 12.683594 27.492188 "/>
<path style=" stroke:none;fill-rule:nonzero;fill:rgb(5.879211%,80.389404%,53.729248%);fill-opacity:1;" d="M 18.074219 20.304688 L 18.972656 20.304688 L 18.972656 21.203125 L 18.074219 21.203125 Z M 18.074219 20.304688 "/>
<path style=" stroke:none;fill-rule:nonzero;fill:rgb(5.879211%,80.389404%,53.729248%);fill-opacity:1;" d="M 18.074219 22.101562 L 18.972656 22.101562 L 18.972656 23 L 18.074219 23 Z M 18.074219 22.101562 "/>
<path style=" stroke:none;fill-rule:nonzero;fill:rgb(5.879211%,80.389404%,53.729248%);fill-opacity:1;" d="M 18.074219 23.898438 L 18.972656 23.898438 L 18.972656 24.796875 L 18.074219 24.796875 Z M 18.074219 23.898438 "/>
<path style=" stroke:none;fill-rule:nonzero;fill:rgb(5.879211%,80.389404%,53.729248%);fill-opacity:1;" d="M 18.074219 25.695312 L 18.972656 25.695312 L 18.972656 26.59375 L 18.074219 26.59375 Z M 18.074219 25.695312 "/>
<path style=" stroke:none;fill-rule:nonzero;fill:rgb(5.879211%,80.389404%,53.729248%);fill-opacity:1;" d="M 18.074219 27.492188 L 18.972656 27.492188 L 18.972656 28.390625 L 18.074219 28.390625 Z M 18.074219 27.492188 "/>
<path style=" stroke:none;fill-rule:nonzero;fill:rgb(5.879211%,80.389404%,53.729248%);fill-opacity:1;" d="M 23.464844 18.507812 L 24.363281 18.507812 L 24.363281 19.40625 L 23.464844 19.40625 Z M 23.464844 18.507812 "/>
<path style=" stroke:none;fill-rule:nonzero;fill:rgb(5.879211%,80.389404%,53.729248%);fill-opacity:1;" d="M 23.464844 20.304688 L 24.363281 20.304688 L 24.363281 21.203125 L 23.464844 21.203125 Z M 23.464844 20.304688 "/>
<path style=" stroke:none;fill-rule:nonzero;fill:rgb(5.879211%,80.389404%,53.729248%);fill-opacity:1;" d="M 23.464844 22.101562 L 24.363281 22.101562 L 24.363281 23 L 23.464844 23 Z M 23.464844 22.101562 "/>
<path style=" stroke:none;fill-rule:nonzero;fill:rgb(5.879211%,80.389404%,53.729248%);fill-opacity:1;" d="M 23.464844 23.898438 L 24.363281 23.898438 L 24.363281 24.796875 L 23.464844 24.796875 Z M 23.464844 23.898438 "/>
<path style=" stroke:none;fill-rule:nonzero;fill:rgb(5.879211%,80.389404%,53.729248%);fill-opacity:1;" d="M 23.464844 25.695312 L 24.363281 25.695312 L 24.363281 26.59375 L 23.464844 26.59375 Z M 23.464844 25.695312 "/>
<path style=" stroke:none;fill-rule:nonzero;fill:rgb(5.879211%,80.389404%,53.729248%);fill-opacity:1;" d="M 23.464844 27.492188 L 24.363281 27.492188 L 24.363281 28.390625 L 23.464844 28.390625 Z M 23.464844 27.492188 "/>
<path style=" stroke:none;fill-rule:nonzero;fill:rgb(5.879211%,80.389404%,53.729248%);fill-opacity:1;" d="M 28.855469 22.101562 L 29.753906 22.101562 L 29.753906 23 L 28.855469 23 Z M 28.855469 22.101562 "/>
<path style=" stroke:none;fill-rule:nonzero;fill:rgb(5.879211%,80.389404%,53.729248%);fill-opacity:1;" d="M 28.855469 23.898438 L 29.753906 23.898438 L 29.753906 24.796875 L 28.855469 24.796875 Z M 28.855469 23.898438 "/>
<path style=" stroke:none;fill-rule:nonzero;fill:rgb(5.879211%,80.389404%,53.729248%);fill-opacity:1;" d="M 28.855469 25.695312 L 29.753906 25.695312 L 29.753906 26.59375 L 28.855469 26.59375 Z M 28.855469 25.695312 "/>
<path style=" stroke:none;fill-rule:nonzero;fill:rgb(5.879211%,80.389404%,53.729248%);fill-opacity:1;" d="M 28.855469 27.492188 L 29.753906 27.492188 L 29.753906 28.390625 L 28.855469 28.390625 Z M 28.855469 27.492188 "/>
<g clip-path="url(#clip1)" clip-rule="nonzero">
<path style=" stroke:none;fill-rule:nonzero;fill:rgb(5.879211%,80.389404%,53.729248%);fill-opacity:1;" d="M 29.753906 29.289062 L 28.855469 29.289062 L 28.855469 30.1875 L 24.363281 30.1875 L 24.363281 29.289062 L 23.464844 29.289062 L 23.464844 30.1875 L 18.972656 30.1875 L 18.972656 29.289062 L 18.074219 29.289062 L 18.074219 30.1875 L 13.582031 30.1875 L 13.582031 29.289062 L 12.683594 29.289062 L 12.683594 30.1875 L 8.1875 30.1875 L 8.1875 29.289062 L 7.289062 29.289062 L 7.289062 30.1875 L 5.492188 30.1875 L 5.492188 28.546875 L 7.058594 26.59375 L 8.640625 26.59375 C 8.886719 26.59375 9.089844 26.394531 9.089844 26.144531 L 9.089844 24.886719 L 12.007812 22.941406 C 12.019531 22.945312 12.03125 22.949219 12.042969 22.953125 C 12.054688 22.960938 12.066406 22.964844 12.078125 22.96875 C 12.125 22.988281 12.175781 23 12.234375 23 L 14.03125 23 C 14.277344 23 14.480469 22.796875 14.480469 22.550781 L 14.480469 21.292969 L 17.398438 19.347656 C 17.410156 19.351562 17.421875 19.355469 17.433594 19.359375 C 17.445312 19.367188 17.457031 19.371094 17.46875 19.375 C 17.515625 19.394531 17.570312 19.40625 17.625 19.40625 L 19.421875 19.40625 C 19.667969 19.40625 19.871094 19.203125 19.871094 18.957031 L 19.871094 18.082031 L 22.566406 17.183594 C 22.566406 17.214844 22.582031 17.242188 22.589844 17.273438 C 22.59375 17.296875 22.59375 17.320312 22.605469 17.34375 C 22.621094 17.375 22.640625 17.398438 22.664062 17.425781 C 22.675781 17.445312 22.683594 17.464844 22.703125 17.480469 C 22.730469 17.507812 22.761719 17.523438 22.792969 17.542969 C 22.8125 17.550781 22.824219 17.566406 22.84375 17.574219 C 22.894531 17.597656 22.953125 17.609375 23.015625 17.609375 L 24.8125 17.609375 C 25.058594 17.609375 25.261719 17.40625 25.261719 17.160156 L 25.261719 16.222656 C 25.425781 16.160156 25.613281 16.082031 25.8125 16.003906 C 26.382812 15.773438 27.339844 15.390625 27.539062 15.359375 L 27.507812 14.914062 L 27.507812 14.464844 C 27.277344 14.464844 26.820312 14.632812 25.480469 15.167969 C 25.398438 15.203125 25.316406 15.234375 25.242188 15.265625 C 25.195312 15.066406 25.023438 14.914062 24.8125 14.914062 L 23.015625 14.914062 C 22.765625 14.914062 22.566406 15.113281 22.566406 15.363281 L 22.566406 16.238281 L 19.867188 17.136719 C 19.851562 16.898438 19.660156 16.710938 19.421875 16.710938 L 17.625 16.710938 C 17.375 16.710938 17.175781 16.910156 17.175781 17.160156 L 17.175781 18.417969 L 14.246094 20.367188 C 14.179688 20.332031 14.109375 20.304688 14.03125 20.304688 L 12.234375 20.304688 C 11.984375 20.304688 11.785156 20.503906 11.785156 20.753906 L 11.785156 22.011719 L 8.855469 23.960938 C 8.789062 23.925781 8.71875 23.898438 8.640625 23.898438 L 6.839844 23.898438 C 6.59375 23.898438 6.390625 24.101562 6.390625 24.347656 L 6.390625 25.988281 L 5.492188 27.109375 L 5.492188 20.042969 L 7.027344 18.507812 L 8.640625 18.507812 C 8.886719 18.507812 9.089844 18.304688 9.089844 18.058594 L 9.089844 16.800781 L 12.007812 14.855469 C 12.019531 14.859375 12.03125 14.863281 12.042969 14.867188 C 12.054688 14.875 12.066406 14.878906 12.078125 14.882812 C 12.125 14.902344 12.175781 14.914062 12.234375 14.914062 L 14.03125 14.914062 C 14.277344 14.914062 14.480469 14.710938 14.480469 14.464844 L 14.480469 13.207031 L 17.398438 11.261719 C 17.410156 11.265625 17.421875 11.269531 17.433594 11.273438 C 17.445312 11.28125 17.457031 11.285156 17.46875 11.289062 C 17.515625 11.304688 17.570312 11.320312 17.625 11.320312 L 19.421875 11.320312 C 19.667969 11.320312 19.871094 11.117188 19.871094 10.871094 L 19.871094 9.996094 L 22.566406 9.097656 C 22.566406 9.128906 22.582031 9.15625 22.589844 9.183594 C 22.59375 9.207031 22.59375 9.234375 22.605469 9.253906 C 22.621094 9.285156 22.640625 9.3125 22.664062 9.339844 C 22.675781 9.359375 22.683594 9.378906 22.703125 9.394531 C 22.730469 9.421875 22.761719 9.4375 22.792969 9.457031 C 22.8125 9.464844 22.824219 9.480469 22.84375 9.488281 C 22.894531 9.511719 22.953125 9.523438 23.015625 9.523438 L 24.8125 9.523438 C 25.058594 9.523438 25.261719 9.320312 25.261719 9.074219 L 25.261719 8.128906 C 25.410156 8.058594 25.566406 7.980469 25.730469 7.898438 C 26.289062 7.621094 26.984375 7.277344 27.507812 7.277344 L 27.507812 6.378906 C 26.777344 6.378906 25.976562 6.773438 25.332031 7.09375 C 25.296875 7.113281 25.265625 7.125 25.234375 7.140625 C 25.175781 6.960938 25.011719 6.828125 24.8125 6.828125 L 23.015625 6.828125 C 22.765625 6.828125 22.566406 7.027344 22.566406 7.277344 L 22.566406 8.152344 L 19.867188 9.050781 C 19.851562 8.8125 19.660156 8.625 19.421875 8.625 L 17.625 8.625 C 17.375 8.625 17.175781 8.824219 17.175781 9.074219 L 17.175781 10.332031 L 14.246094 12.28125 C 14.179688 12.246094 14.109375 12.21875 14.03125 12.21875 L 12.234375 12.21875 C 11.984375 12.21875 11.785156 12.417969 11.785156 12.667969 L 11.785156 13.925781 L 8.855469 15.875 C 8.789062 15.839844 8.71875 15.8125 8.640625 15.8125 L 6.839844 15.8125 C 6.59375 15.8125 6.390625 16.011719 6.390625 16.261719 L 6.390625 17.871094 L 5.492188 18.769531 L 5.492188 4.132812 L 4.59375 4.132812 L 4.59375 30.636719 C 4.59375 30.886719 4.796875 31.085938 5.042969 31.085938 L 31.550781 31.085938 L 31.550781 30.1875 L 29.753906 30.1875 Z M 23.464844 15.8125 L 24.363281 15.8125 L 24.363281 16.710938 L 23.464844 16.710938 Z M 18.074219 17.609375 L 18.972656 17.609375 L 18.972656 18.507812 L 18.074219 18.507812 Z M 12.683594 21.203125 L 13.582031 21.203125 L 13.582031 22.101562 L 12.683594 22.101562 Z M 7.289062 24.796875 L 8.1875 24.796875 L 8.1875 25.695312 L 7.289062 25.695312 Z M 23.464844 7.726562 L 24.363281 7.726562 L 24.363281 8.625 L 23.464844 8.625 Z M 18.074219 9.523438 L 18.972656 9.523438 L 18.972656 10.421875 L 18.074219 10.421875 Z M 12.683594 13.117188 L 13.582031 13.117188 L 13.582031 14.015625 L 12.683594 14.015625 Z M 7.289062 16.710938 L 8.1875 16.710938 L 8.1875 17.609375 L 7.289062 17.609375 Z M 7.289062 16.710938 "/>
</g>
<path style=" stroke:none;fill-rule:nonzero;fill:rgb(5.879211%,80.389404%,53.729248%);fill-opacity:1;" d="M 7.289062 19.40625 L 8.1875 19.40625 L 8.1875 20.304688 L 7.289062 20.304688 Z M 7.289062 19.40625 "/>
<path style=" stroke:none;fill-rule:nonzero;fill:rgb(5.879211%,80.389404%,53.729248%);fill-opacity:1;" d="M 7.289062 21.203125 L 8.1875 21.203125 L 8.1875 22.101562 L 7.289062 22.101562 Z M 7.289062 21.203125 "/>
<path style=" stroke:none;fill-rule:nonzero;fill:rgb(5.879211%,80.389404%,53.729248%);fill-opacity:1;" d="M 12.683594 17.609375 L 13.582031 17.609375 L 13.582031 18.507812 L 12.683594 18.507812 Z M 12.683594 17.609375 "/>
<path style=" stroke:none;fill-rule:nonzero;fill:rgb(5.879211%,80.389404%,53.729248%);fill-opacity:1;" d="M 12.683594 15.8125 L 13.582031 15.8125 L 13.582031 16.710938 L 12.683594 16.710938 Z M 12.683594 15.8125 "/>
<path style=" stroke:none;fill-rule:nonzero;fill:rgb(5.879211%,80.389404%,53.729248%);fill-opacity:1;" d="M 18.074219 14.015625 L 18.972656 14.015625 L 18.972656 14.914062 L 18.074219 14.914062 Z M 18.074219 14.015625 "/>
<path style=" stroke:none;fill-rule:nonzero;fill:rgb(5.879211%,80.389404%,53.729248%);fill-opacity:1;" d="M 18.074219 12.21875 L 18.972656 12.21875 L 18.972656 13.117188 L 18.074219 13.117188 Z M 18.074219 12.21875 "/>
<path style=" stroke:none;fill-rule:nonzero;fill:rgb(5.879211%,80.389404%,53.729248%);fill-opacity:1;" d="M 23.464844 12.21875 L 24.363281 12.21875 L 24.363281 13.117188 L 23.464844 13.117188 Z M 23.464844 12.21875 "/>
<path style=" stroke:none;fill-rule:nonzero;fill:rgb(5.879211%,80.389404%,53.729248%);fill-opacity:1;" d="M 23.464844 10.421875 L 24.363281 10.421875 L 24.363281 11.320312 L 23.464844 11.320312 Z M 23.464844 10.421875 "/>
<g clip-path="url(#clip2)" clip-rule="nonzero">
<path style=" stroke:none;fill-rule:nonzero;fill:rgb(5.879211%,80.389404%,53.729248%);fill-opacity:1;" d="M 29.753906 17.160156 L 31.101562 17.160156 L 31.101562 16.261719 L 29.753906 16.261719 L 29.753906 14.832031 C 30.273438 14.644531 30.652344 14.152344 30.652344 13.566406 C 30.652344 12.824219 30.046875 12.21875 29.304688 12.21875 C 28.5625 12.21875 27.957031 12.824219 27.957031 13.566406 C 27.957031 14.152344 28.332031 14.644531 28.855469 14.832031 L 28.855469 16.261719 L 27.507812 16.261719 L 27.507812 17.160156 L 28.855469 17.160156 L 28.855469 18.507812 L 29.753906 18.507812 Z M 29.304688 13.117188 C 29.550781 13.117188 29.753906 13.316406 29.753906 13.566406 C 29.753906 13.8125 29.550781 14.015625 29.304688 14.015625 C 29.058594 14.015625 28.855469 13.8125 28.855469 13.566406 C 28.855469 13.316406 29.058594 13.117188 29.304688 13.117188 Z M 29.304688 13.117188 "/>
</g>
<g clip-path="url(#clip3)" clip-rule="nonzero">
<path style=" stroke:none;fill-rule:nonzero;fill:rgb(5.879211%,80.389404%,53.729248%);fill-opacity:1;" d="M 30.742188 6.648438 L 31.460938 6.109375 L 30.113281 4.3125 C 29.945312 4.085938 29.5625 4.085938 29.394531 4.3125 L 28.046875 6.109375 L 28.765625 6.648438 L 29.304688 5.929688 L 29.304688 7.359375 C 28.78125 7.542969 28.40625 8.039062 28.40625 8.625 C 28.40625 9.367188 29.011719 9.972656 29.753906 9.972656 C 30.496094 9.972656 31.101562 9.367188 31.101562 8.625 C 31.101562 8.039062 30.722656 7.542969 30.203125 7.359375 L 30.203125 5.929688 Z M 29.753906 9.074219 C 29.507812 9.074219 29.304688 8.871094 29.304688 8.625 C 29.304688 8.375 29.507812 8.175781 29.753906 8.175781 C 30 8.175781 30.203125 8.375 30.203125 8.625 C 30.203125 8.871094 30 9.074219 29.753906 9.074219 Z M 29.753906 9.074219 "/>
</g>
<path style=" stroke:none;fill-rule:nonzero;fill:rgb(5.879211%,80.389404%,53.729248%);fill-opacity:1;" d="M 28.855469 20.304688 L 29.753906 20.304688 L 29.753906 21.203125 L 28.855469 21.203125 Z M 28.855469 20.304688 "/>
</g>
</svg>
