<svg xmlns="http://www.w3.org/2000/svg" width="546" height="541" viewBox="0 0 546 541">
  <g fill="none" fill-rule="evenodd" transform="translate(10.125 10)">
    <ellipse cx="262.5" cy="260.5" fill="#148EE5" stroke="#FFFFFF" stroke-width="20" rx="262.5" ry="260.5"/>
    <g fill="#FFFFFF" transform="translate(187 78)">
      <path d="M141.039501 293.260933C139.654558 291.210009 136.997505 290.480276 134.7788 291.543083 110.23326 303.288458 82.3746412 315.706035 76.9067632 316.791047 76.7689679 316.666901 76.5502927 316.439806 76.2637184 316.047183 75.5228189 315.032824 75.1623543 313.707596 75.1623543 311.994792 75.1623543 297.960295 85.6417882 255.266356 106.308091 185.104973 123.733207 126.155039 125.748214 113.949417 125.748214 109.897025 125.748214 103.641304 123.378734 98.3555314 118.893397 94.609971 114.632725 91.0581986 108.679568 89.2585935 101.200677 89.2585935 88.7601562 89.2585935 74.3415735 94.0326439 57.1201541 103.854269 40.4319426 113.375118 21.8205878 129.500911 1.80631691 151.783514.239644034 153.528616.0758872775 156.13769 1.41190277 158.069515 2.74991529 160.00235 5.23122956 160.738139 7.38902439 159.849943 14.4155872 156.951197 49.7281341 142.329279 54.8754883 139.061124 59.0902278 136.390482 62.7388082 135.034975 65.7203794 135.034975 65.8272207 135.034975 65.9190842 135.039012 65.99597 135.045068 66.0319166 135.244912 66.0658662 135.549724 66.0658662 135.986757 66.0658662 139.062133 65.4397961 142.702725 64.212619 146.789433 34.1213164 245.339762 19.4940437 305.754209 19.4940437 331.487653 19.4940437 340.569451 21.9913342 347.880915 26.9150206 353.216143 31.9325676 358.659368 38.7005145 361.41883 47.0311402 361.41883 55.9089532 361.41883 66.7139036 357.670241 80.0620763 349.95909 92.9788897 342.498249 112.693606 326.08581 140.335546 299.779077 142.125887 298.076366 142.424444 295.311857 141.039501 293.260933zM140.073935 7.7434492C135.15624 2.65550245 128.863587.0756984736 121.372714.0756984736 112.046567.0756984736 103.923632 3.80107269 97.2325714 11.1488712 90.6483515 18.3755521 87.3093113 27.243376 87.3093113 37.5050611 87.3093113 45.6128723 89.7686582 52.3318688 94.6184544 57.4743184 99.5331541 62.6944852 105.740933 65.3409038 113.067051 65.3409038 122.011765 65.3409038 130.090764 61.4066018 137.078385 53.6470036 143.944186 46.0236627 147.426014 37.0609634 147.426014 27.0082061 147.427013 19.2829245 144.953687 12.8021259 140.073935 7.7434492z"/>
    </g>
  </g>
</svg>
