<?xml version="1.0" encoding="UTF-8"?>
<svg xmlns="http://www.w3.org/2000/svg" xmlns:xlink="http://www.w3.org/1999/xlink" width="36pt" height="36.000001pt" viewBox="0 0 36 36.000001" version="1.2">
<defs>
<clipPath id="clip1">
  <path d="M 4 4.136719 L 31.71875 4.136719 L 31.71875 31.863281 L 4 31.863281 Z M 4 4.136719 "/>
</clipPath>
</defs>
<g id="surface1">
<g clip-path="url(#clip1)" clip-rule="nonzero">
<path style=" stroke:none;fill-rule:nonzero;fill:rgb(5.879211%,80.389404%,53.729248%);fill-opacity:1;" d="M 30.679688 23.082031 C 30.679688 23.339844 30.472656 23.546875 30.21875 23.546875 L 17.277344 23.546875 C 17.023438 23.546875 16.8125 23.339844 16.8125 23.082031 L 16.8125 11.066406 L 18.664062 11.066406 L 18.664062 10.144531 L 16.8125 10.144531 L 16.8125 5.523438 C 16.8125 5.265625 17.023438 5.058594 17.277344 5.058594 L 26.519531 5.058594 L 26.519531 7.832031 C 26.519531 8.019531 26.632812 8.1875 26.804688 8.257812 C 26.976562 8.332031 27.175781 8.289062 27.308594 8.160156 L 27.90625 7.5625 L 28.503906 8.160156 C 28.59375 8.246094 28.710938 8.292969 28.832031 8.292969 C 28.890625 8.292969 28.949219 8.285156 29.007812 8.257812 C 29.179688 8.1875 29.292969 8.019531 29.292969 7.832031 L 29.292969 5.058594 L 30.21875 5.058594 C 30.472656 5.058594 30.679688 5.265625 30.679688 5.523438 Z M 28.367188 5.058594 L 28.367188 6.714844 L 28.234375 6.582031 C 28.140625 6.492188 28.023438 6.445312 27.90625 6.445312 C 27.785156 6.445312 27.667969 6.492188 27.578125 6.582031 L 27.445312 6.714844 L 27.445312 5.058594 Z M 12.191406 14.765625 C 12.445312 14.765625 12.65625 14.972656 12.65625 15.226562 C 12.65625 15.480469 12.445312 15.6875 12.191406 15.6875 L 10.804688 15.6875 L 10.804688 14.765625 Z M 12.828125 21.964844 C 12.574219 21.914062 12.269531 21.882812 11.882812 21.882812 C 11.425781 21.882812 11.085938 21.929688 10.804688 21.996094 L 10.804688 16.613281 L 11.730469 16.613281 L 11.730469 18.925781 C 11.730469 18.976562 11.738281 19.03125 11.757812 19.085938 Z M 15.457031 29.070312 C 15.617188 29.503906 15.558594 29.96875 15.296875 30.347656 C 15.035156 30.722656 14.617188 30.941406 14.160156 30.941406 L 6.527344 30.941406 C 6.070312 30.941406 5.65625 30.722656 5.390625 30.347656 C 5.128906 29.96875 5.070312 29.503906 5.230469 29.070312 L 7.417969 23.164062 C 7.75 23.269531 8.160156 23.363281 8.800781 23.363281 C 9.261719 23.363281 9.601562 23.3125 9.882812 23.25 L 9.882812 24.46875 L 10.804688 24.46875 L 10.804688 22.953125 C 11.078125 22.867188 11.382812 22.804688 11.882812 22.804688 C 12.546875 22.804688 12.871094 22.914062 13.222656 23.039062 Z M 8.929688 19.085938 C 8.949219 19.03125 8.957031 18.976562 8.957031 18.925781 L 8.957031 16.613281 L 9.882812 16.613281 L 9.882812 22.292969 C 9.609375 22.375 9.300781 22.4375 8.800781 22.4375 C 8.308594 22.4375 8.007812 22.378906 7.738281 22.292969 Z M 8.496094 14.765625 L 9.882812 14.765625 L 9.882812 15.6875 L 8.496094 15.6875 C 8.242188 15.6875 8.03125 15.480469 8.03125 15.226562 C 8.03125 14.972656 8.242188 14.765625 8.496094 14.765625 Z M 30.21875 4.136719 L 17.277344 4.136719 C 16.511719 4.136719 15.890625 4.757812 15.890625 5.523438 L 15.890625 10.144531 L 11.269531 10.144531 C 10.503906 10.144531 9.882812 10.765625 9.882812 11.53125 L 9.882812 13.839844 L 8.496094 13.839844 C 7.730469 13.839844 7.109375 14.460938 7.109375 15.226562 C 7.109375 15.828125 7.496094 16.335938 8.03125 16.527344 L 8.03125 18.839844 L 4.363281 28.75 C 4.097656 29.460938 4.199219 30.253906 4.632812 30.875 C 5.066406 31.496094 5.773438 31.863281 6.527344 31.863281 L 14.160156 31.863281 C 14.914062 31.863281 15.621094 31.496094 16.054688 30.875 C 16.484375 30.253906 16.589844 29.460938 16.324219 28.75 L 12.65625 18.839844 L 12.65625 16.527344 C 13.191406 16.335938 13.578125 15.828125 13.578125 15.226562 C 13.578125 14.460938 12.957031 13.839844 12.191406 13.839844 L 10.804688 13.839844 L 10.804688 11.53125 C 10.804688 11.273438 11.015625 11.066406 11.269531 11.066406 L 15.890625 11.066406 L 15.890625 23.082031 C 15.890625 23.847656 16.511719 24.46875 17.277344 24.46875 L 30.21875 24.46875 C 30.980469 24.46875 31.601562 23.847656 31.601562 23.082031 L 31.601562 5.523438 C 31.601562 4.757812 30.980469 4.136719 30.21875 4.136719 "/>
</g>
<path style=" stroke:none;fill-rule:nonzero;fill:rgb(5.879211%,80.389404%,53.729248%);fill-opacity:1;" d="M 21.4375 6.445312 L 19.585938 6.445312 L 19.585938 7.371094 L 21.4375 7.371094 L 21.4375 6.445312 "/>
<path style=" stroke:none;fill-rule:nonzero;fill:rgb(5.879211%,80.389404%,53.729248%);fill-opacity:1;" d="M 21.4375 7.832031 L 19.585938 7.832031 L 19.585938 8.757812 L 21.4375 8.757812 L 21.4375 7.832031 "/>
<path style=" stroke:none;fill-rule:nonzero;fill:rgb(5.879211%,80.389404%,53.729248%);fill-opacity:1;" d="M 19.585938 18 L 19.585938 18.925781 L 21.4375 18.925781 L 21.4375 18 L 19.585938 18 "/>
<path style=" stroke:none;fill-rule:nonzero;fill:rgb(5.879211%,80.389404%,53.729248%);fill-opacity:1;" d="M 22.359375 18.925781 L 26.058594 18.925781 L 26.058594 18 L 22.359375 18 L 22.359375 18.925781 "/>
<path style=" stroke:none;fill-rule:nonzero;fill:rgb(5.879211%,80.389404%,53.729248%);fill-opacity:1;" d="M 19.585938 20.773438 L 26.058594 20.773438 L 26.058594 19.847656 L 19.585938 19.847656 L 19.585938 20.773438 "/>
<path style=" stroke:none;fill-rule:nonzero;fill:rgb(5.879211%,80.389404%,53.729248%);fill-opacity:1;" d="M 27.445312 15.6875 C 27.699219 15.6875 27.90625 15.898438 27.90625 16.152344 C 27.90625 16.40625 27.699219 16.613281 27.445312 16.613281 C 27.1875 16.613281 26.980469 16.40625 26.980469 16.152344 C 26.980469 15.898438 27.1875 15.6875 27.445312 15.6875 Z M 24.207031 14.765625 C 23.699219 14.765625 23.285156 14.351562 23.285156 13.839844 C 23.285156 13.332031 23.699219 12.917969 24.207031 12.917969 C 24.71875 12.917969 25.132812 13.332031 25.132812 13.839844 C 25.132812 14.351562 24.71875 14.765625 24.207031 14.765625 Z M 27.445312 10.144531 C 27.699219 10.144531 27.90625 10.351562 27.90625 10.605469 C 27.90625 10.859375 27.699219 11.066406 27.445312 11.066406 C 27.1875 11.066406 26.980469 10.859375 26.980469 10.605469 C 26.980469 10.351562 27.1875 10.144531 27.445312 10.144531 Z M 20.511719 16.152344 C 20.257812 16.152344 20.050781 15.945312 20.050781 15.6875 C 20.050781 15.433594 20.257812 15.226562 20.511719 15.226562 C 20.765625 15.226562 20.972656 15.433594 20.972656 15.6875 C 20.972656 15.945312 20.765625 16.152344 20.511719 16.152344 Z M 27.445312 11.992188 C 28.210938 11.992188 28.832031 11.371094 28.832031 10.605469 C 28.832031 9.839844 28.210938 9.21875 27.445312 9.21875 C 26.679688 9.21875 26.058594 9.839844 26.058594 10.605469 C 26.058594 10.820312 26.109375 11.019531 26.195312 11.199219 L 25.140625 12.253906 C 24.867188 12.089844 24.550781 11.992188 24.207031 11.992188 C 23.1875 11.992188 22.359375 12.820312 22.359375 13.839844 C 22.359375 13.972656 22.375 14.101562 22.402344 14.226562 L 21.46875 14.691406 C 21.222656 14.453125 20.882812 14.300781 20.511719 14.300781 C 19.746094 14.300781 19.125 14.921875 19.125 15.6875 C 19.125 16.453125 19.746094 17.074219 20.511719 17.074219 C 21.277344 17.074219 21.898438 16.453125 21.898438 15.6875 C 21.898438 15.632812 21.886719 15.574219 21.882812 15.519531 L 22.824219 15.050781 C 23.160156 15.4375 23.65625 15.6875 24.207031 15.6875 C 24.660156 15.6875 25.066406 15.519531 25.390625 15.25 L 26.117188 15.773438 C 26.082031 15.894531 26.058594 16.019531 26.058594 16.152344 C 26.058594 16.917969 26.679688 17.539062 27.445312 17.539062 C 28.210938 17.539062 28.832031 16.917969 28.832031 16.152344 C 28.832031 15.386719 28.210938 14.765625 27.445312 14.765625 C 27.148438 14.765625 26.875 14.859375 26.648438 15.019531 L 25.929688 14.5 C 26.007812 14.296875 26.058594 14.074219 26.058594 13.839844 C 26.058594 13.5 25.957031 13.179688 25.796875 12.90625 L 26.851562 11.851562 C 27.03125 11.941406 27.230469 11.992188 27.445312 11.992188 "/>
<path style=" stroke:none;fill-rule:nonzero;fill:rgb(5.879211%,80.389404%,53.729248%);fill-opacity:1;" d="M 7.570312 29.09375 L 8.496094 29.09375 L 8.496094 28.167969 L 7.570312 28.167969 L 7.570312 29.09375 "/>
<path style=" stroke:none;fill-rule:nonzero;fill:rgb(5.879211%,80.389404%,53.729248%);fill-opacity:1;" d="M 8.957031 26.78125 L 9.882812 26.78125 L 9.882812 25.855469 L 8.957031 25.855469 L 8.957031 26.78125 "/>
<path style=" stroke:none;fill-rule:nonzero;fill:rgb(5.879211%,80.389404%,53.729248%);fill-opacity:1;" d="M 11.730469 25.394531 L 12.65625 25.394531 L 12.65625 24.46875 L 11.730469 24.46875 L 11.730469 25.394531 "/>
<path style=" stroke:none;fill-rule:nonzero;fill:rgb(5.879211%,80.389404%,53.729248%);fill-opacity:1;" d="M 11.730469 28.167969 L 12.65625 28.167969 L 12.65625 27.242188 L 11.730469 27.242188 L 11.730469 28.167969 "/>
</g>
</svg>
