<?xml version="1.0" encoding="UTF-8"?>
<svg xmlns="http://www.w3.org/2000/svg" xmlns:xlink="http://www.w3.org/1999/xlink" width="36pt" height="36.000001pt" viewBox="0 0 36 36.000001" version="1.2">
<defs>
<clipPath id="clip1">
  <path d="M 15 5.324219 L 31.71875 5.324219 L 31.71875 22 L 15 22 Z M 15 5.324219 "/>
</clipPath>
<clipPath id="clip2">
  <path d="M 20 24 L 30 24 L 30 29.40625 L 20 29.40625 Z M 20 24 "/>
</clipPath>
</defs>
<g id="surface1">
<g clip-path="url(#clip1)" clip-rule="nonzero">
<path style=" stroke:none;fill-rule:nonzero;fill:rgb(5.879211%,80.389404%,53.729248%);fill-opacity:1;" d="M 19.558594 21.761719 C 18.445312 21.761719 17.398438 21.328125 16.617188 20.539062 L 16.480469 20.402344 C 15.699219 19.625 15.257812 18.578125 15.257812 17.46875 C 15.257812 16.359375 15.691406 15.324219 16.480469 14.535156 L 24.480469 6.550781 C 25.261719 5.773438 26.308594 5.332031 27.421875 5.332031 C 28.53125 5.332031 29.578125 5.765625 30.359375 6.550781 L 30.496094 6.691406 C 31.277344 7.46875 31.71875 8.515625 31.71875 9.625 C 31.71875 10.734375 31.289062 11.769531 30.496094 12.558594 L 22.496094 20.539062 C 21.714844 21.328125 20.667969 21.761719 19.558594 21.761719 Z M 27.421875 6.257812 C 26.558594 6.257812 25.738281 6.597656 25.132812 7.203125 L 17.132812 15.1875 C 16.519531 15.800781 16.1875 16.609375 16.1875 17.46875 C 16.1875 18.332031 16.527344 19.148438 17.132812 19.753906 L 17.269531 19.890625 C 17.886719 20.503906 18.695312 20.835938 19.558594 20.835938 C 20.421875 20.835938 21.238281 20.496094 21.84375 19.890625 L 29.84375 11.90625 C 30.460938 11.292969 30.792969 10.484375 30.792969 9.625 C 30.792969 8.761719 30.453125 7.945312 29.84375 7.339844 L 29.707031 7.203125 C 29.101562 6.589844 28.285156 6.257812 27.421875 6.257812 Z M 27.421875 6.257812 "/>
</g>
<path style=" stroke:none;fill-rule:nonzero;fill:rgb(5.879211%,80.389404%,53.729248%);fill-opacity:1;" d="M 26.171875 16.683594 C 26.050781 16.683594 25.933594 16.636719 25.851562 16.542969 L 20.484375 11.191406 C 20.300781 11.007812 20.300781 10.722656 20.484375 10.539062 C 20.667969 10.355469 20.953125 10.355469 21.136719 10.539062 L 26.5 15.894531 C 26.683594 16.078125 26.683594 16.359375 26.5 16.542969 C 26.410156 16.644531 26.289062 16.683594 26.171875 16.683594 Z M 26.171875 16.683594 "/>
<path style=" stroke:none;fill-rule:nonzero;fill:rgb(5.879211%,80.389404%,53.729248%);fill-opacity:1;" d="M 27.171875 12.921875 C 27.054688 12.921875 26.933594 12.878906 26.851562 12.785156 C 26.667969 12.601562 26.667969 12.320312 26.851562 12.136719 L 28.394531 10.59375 C 28.925781 10.054688 28.925781 9.183594 28.394531 8.652344 C 28.210938 8.46875 28.210938 8.183594 28.394531 8 C 28.578125 7.816406 28.863281 7.816406 29.046875 8 C 29.9375 8.890625 29.9375 10.347656 29.046875 11.246094 L 27.503906 12.785156 C 27.410156 12.878906 27.292969 12.921875 27.171875 12.921875 Z M 27.171875 12.921875 "/>
<path style=" stroke:none;fill-rule:nonzero;fill:rgb(5.879211%,80.389404%,53.729248%);fill-opacity:1;" d="M 8.867188 24.425781 C 7.726562 24.425781 6.589844 23.996094 5.726562 23.125 C 3.988281 21.394531 3.988281 18.578125 5.726562 16.847656 C 7.460938 15.113281 10.28125 15.113281 12.015625 16.847656 C 13.753906 18.578125 13.753906 21.394531 12.015625 23.125 C 11.144531 23.996094 10.003906 24.425781 8.867188 24.425781 Z M 8.867188 16.472656 C 7.964844 16.472656 7.058594 16.808594 6.367188 17.496094 C 4.992188 18.871094 4.992188 21.109375 6.367188 22.484375 C 7.746094 23.859375 9.988281 23.859375 11.363281 22.484375 C 12.742188 21.109375 12.742188 18.871094 11.363281 17.496094 C 10.675781 16.808594 9.765625 16.472656 8.867188 16.472656 Z M 8.867188 16.472656 "/>
<path style=" stroke:none;fill-rule:nonzero;fill:rgb(5.879211%,80.389404%,53.729248%);fill-opacity:1;" d="M 6.046875 23.261719 C 5.925781 23.261719 5.808594 23.21875 5.726562 23.125 C 5.542969 22.941406 5.542969 22.660156 5.726562 22.476562 L 11.363281 16.847656 C 11.546875 16.664062 11.832031 16.664062 12.015625 16.847656 C 12.199219 17.03125 12.199219 17.3125 12.015625 17.496094 L 6.378906 23.125 C 6.277344 23.21875 6.15625 23.261719 6.046875 23.261719 Z M 6.046875 23.261719 "/>
<path style=" stroke:none;fill-rule:nonzero;fill:rgb(5.879211%,80.389404%,53.729248%);fill-opacity:1;" d="M 24.957031 27.261719 C 22.367188 27.261719 20.347656 26.125 20.347656 24.664062 C 20.347656 23.207031 22.378906 22.070312 24.957031 22.070312 C 27.539062 22.070312 29.570312 23.207031 29.570312 24.664062 C 29.570312 26.125 27.550781 27.261719 24.957031 27.261719 Z M 24.957031 22.988281 C 22.78125 22.988281 21.265625 23.867188 21.265625 24.664062 C 21.265625 25.464844 22.78125 26.34375 24.957031 26.34375 C 27.136719 26.34375 28.652344 25.464844 28.652344 24.664062 C 28.660156 23.878906 27.144531 22.988281 24.957031 22.988281 Z M 24.957031 22.988281 "/>
<path style=" stroke:none;fill-rule:nonzero;fill:rgb(5.879211%,80.389404%,53.729248%);fill-opacity:1;" d="M 21.816406 26.515625 C 21.644531 26.515625 21.476562 26.417969 21.402344 26.25 C 21.292969 26.023438 21.394531 25.746094 21.625 25.636719 L 27.742188 22.75 C 27.972656 22.640625 28.246094 22.742188 28.355469 22.96875 C 28.46875 23.199219 28.367188 23.472656 28.136719 23.585938 L 22.011719 26.480469 C 21.945312 26.507812 21.882812 26.515625 21.816406 26.515625 Z M 21.816406 26.515625 "/>
<g clip-path="url(#clip2)" clip-rule="nonzero">
<path style=" stroke:none;fill-rule:nonzero;fill:rgb(5.879211%,80.389404%,53.729248%);fill-opacity:1;" d="M 24.957031 29.394531 C 22.367188 29.394531 20.347656 28.257812 20.347656 26.800781 C 20.347656 26.792969 20.347656 26.773438 20.347656 26.765625 C 20.347656 26.757812 20.347656 26.746094 20.347656 26.726562 L 20.347656 24.8125 C 20.347656 24.554688 20.550781 24.355469 20.808594 24.355469 C 21.0625 24.355469 21.265625 24.554688 21.265625 24.8125 L 21.265625 26.71875 C 21.265625 26.726562 21.265625 26.738281 21.265625 26.746094 C 21.265625 26.757812 21.265625 26.765625 21.265625 26.773438 C 21.265625 26.785156 21.265625 26.792969 21.265625 26.800781 C 21.277344 27.589844 22.792969 28.46875 24.957031 28.46875 C 27.125 28.46875 28.640625 27.589844 28.652344 26.800781 C 28.652344 26.792969 28.652344 26.785156 28.652344 26.773438 C 28.652344 26.765625 28.652344 26.757812 28.652344 26.746094 C 28.652344 26.738281 28.652344 26.726562 28.652344 26.71875 L 28.652344 24.757812 C 28.652344 24.5 28.851562 24.300781 29.109375 24.300781 C 29.367188 24.300781 29.570312 24.5 29.570312 24.757812 L 29.570312 26.726562 C 29.570312 26.738281 29.570312 26.757812 29.570312 26.765625 C 29.570312 26.773438 29.570312 26.792969 29.570312 26.800781 C 29.578125 28.257812 27.550781 29.394531 24.957031 29.394531 Z M 24.957031 29.394531 "/>
</g>
</g>
</svg>
