<?xml version="1.0" encoding="UTF-8"?>
<svg xmlns="http://www.w3.org/2000/svg" xmlns:xlink="http://www.w3.org/1999/xlink" width="75pt" height="74.999997pt" viewBox="0 0 75 74.999997" version="1.2">
<defs>
<clipPath id="clip1">
  <path d="M 15.785156 15.785156 L 59.285156 15.785156 L 59.285156 59.285156 L 15.785156 59.285156 Z M 15.785156 15.785156 "/>
</clipPath>
<clipPath id="clip2">
  <path d="M 15.785156 15.785156 L 59.285156 15.785156 L 59.285156 59.285156 L 15.785156 59.285156 Z M 15.785156 15.785156 "/>
</clipPath>
</defs>
<g id="surface1">
<g clip-path="url(#clip1)" clip-rule="nonzero">
<path style=" stroke:none;fill-rule:evenodd;fill:rgb(0%,84.709167%,36.468506%);fill-opacity:1;" d="M 37.535156 59.285156 C 49.515625 59.285156 59.285156 49.515625 59.285156 37.535156 C 59.285156 25.554688 49.515625 15.785156 37.535156 15.785156 C 25.554688 15.785156 15.785156 25.554688 15.785156 37.535156 C 15.785156 49.515625 25.554688 59.285156 37.535156 59.285156 "/>
</g>
<path style=" stroke:none;fill-rule:evenodd;fill:rgb(100%,100%,100%);fill-opacity:1;" d="M 33.089844 39.761719 L 45.1875 27.664062 C 46.597656 26.257812 48.878906 26.257812 50.285156 27.664062 C 51.695312 29.070312 51.695312 31.355469 50.285156 32.761719 L 35.65625 47.390625 C 35.652344 47.398438 35.648438 47.402344 35.640625 47.410156 C 34.234375 48.816406 31.949219 48.816406 30.542969 47.410156 L 24.785156 41.652344 C 23.378906 40.242188 23.378906 37.960938 24.785156 36.550781 C 26.191406 35.144531 28.476562 35.144531 29.882812 36.550781 L 33.089844 39.761719 "/>
<path style=" stroke:none;fill-rule:evenodd;fill:rgb(100%,100%,100%);fill-opacity:1;" d="M 33.089844 40.910156 L 45.761719 28.238281 C 46.851562 27.148438 48.621094 27.148438 49.710938 28.238281 C 50.804688 29.328125 50.804688 31.097656 49.710938 32.1875 L 35.082031 46.820312 C 35.078125 46.824219 35.070312 46.828125 35.066406 46.835938 C 33.976562 47.925781 32.207031 47.925781 31.117188 46.835938 L 25.359375 41.078125 C 24.269531 39.984375 24.269531 38.21875 25.359375 37.125 C 26.449219 36.035156 28.21875 36.035156 29.308594 37.125 L 33.089844 40.910156 "/>
<g clip-path="url(#clip2)" clip-rule="nonzero">
<path style=" stroke:none;fill-rule:nonzero;fill:rgb(77.648926%,18.818665%,17.248535%);fill-opacity:1;" d="M 59.355469 37.570312 C 59.355469 38.285156 59.320312 38.996094 59.25 39.707031 C 59.179688 40.414062 59.078125 41.121094 58.9375 41.820312 C 58.796875 42.519531 58.625 43.210938 58.417969 43.894531 C 58.210938 44.578125 57.96875 45.246094 57.699219 45.90625 C 57.425781 46.566406 57.121094 47.210938 56.785156 47.839844 C 56.445312 48.46875 56.082031 49.082031 55.683594 49.671875 C 55.289062 50.265625 54.863281 50.839844 54.410156 51.390625 C 53.957031 51.941406 53.480469 52.46875 52.976562 52.976562 C 52.46875 53.480469 51.941406 53.957031 51.390625 54.410156 C 50.839844 54.863281 50.265625 55.289062 49.671875 55.683594 C 49.082031 56.082031 48.46875 56.445312 47.839844 56.78125 C 47.210938 57.121094 46.566406 57.425781 45.90625 57.695312 C 45.246094 57.96875 44.578125 58.210938 43.894531 58.417969 C 43.210938 58.625 42.519531 58.796875 41.820312 58.9375 C 41.121094 59.074219 40.414062 59.179688 39.707031 59.25 C 38.996094 59.320312 38.285156 59.355469 37.570312 59.355469 C 36.855469 59.355469 36.144531 59.320312 35.433594 59.25 C 34.726562 59.179688 34.019531 59.074219 33.320312 58.9375 C 32.621094 58.796875 31.929688 58.625 31.246094 58.417969 C 30.5625 58.210938 29.894531 57.96875 29.234375 57.695312 C 28.574219 57.425781 27.929688 57.121094 27.300781 56.78125 C 26.671875 56.445312 26.058594 56.082031 25.46875 55.683594 C 24.875 55.289062 24.300781 54.863281 23.75 54.410156 C 23.199219 53.957031 22.671875 53.480469 22.164062 52.976562 C 21.660156 52.46875 21.183594 51.941406 20.730469 51.390625 C 20.277344 50.839844 19.851562 50.265625 19.457031 49.671875 C 19.058594 49.082031 18.695312 48.46875 18.359375 47.839844 C 18.019531 47.210938 17.714844 46.566406 17.445312 45.90625 C 17.171875 45.246094 16.929688 44.578125 16.722656 43.894531 C 16.515625 43.210938 16.34375 42.519531 16.203125 41.820312 C 16.066406 41.121094 15.960938 40.414062 15.890625 39.707031 C 15.820312 38.996094 15.785156 38.285156 15.785156 37.570312 C 15.785156 36.855469 15.820312 36.144531 15.890625 35.433594 C 15.960938 34.726562 16.066406 34.019531 16.203125 33.320312 C 16.34375 32.621094 16.515625 31.929688 16.722656 31.246094 C 16.929688 30.5625 17.171875 29.894531 17.445312 29.234375 C 17.714844 28.574219 18.019531 27.929688 18.359375 27.300781 C 18.695312 26.671875 19.058594 26.058594 19.457031 25.46875 C 19.851562 24.875 20.277344 24.300781 20.730469 23.75 C 21.183594 23.199219 21.660156 22.671875 22.164062 22.164062 C 22.671875 21.660156 23.199219 21.183594 23.75 20.730469 C 24.300781 20.277344 24.875 19.851562 25.46875 19.457031 C 26.058594 19.058594 26.671875 18.695312 27.300781 18.359375 C 27.929688 18.019531 28.574219 17.714844 29.234375 17.445312 C 29.894531 17.171875 30.5625 16.929688 31.246094 16.722656 C 31.929688 16.515625 32.621094 16.34375 33.320312 16.203125 C 34.019531 16.066406 34.726562 15.960938 35.433594 15.890625 C 36.144531 15.820312 36.855469 15.785156 37.570312 15.785156 C 38.285156 15.785156 38.996094 15.820312 39.707031 15.890625 C 40.414062 15.960938 41.121094 16.066406 41.820312 16.203125 C 42.519531 16.34375 43.210938 16.515625 43.894531 16.722656 C 44.578125 16.929688 45.246094 17.171875 45.90625 17.445312 C 46.566406 17.714844 47.210938 18.019531 47.839844 18.359375 C 48.46875 18.695312 49.082031 19.058594 49.671875 19.457031 C 50.265625 19.851562 50.839844 20.277344 51.390625 20.730469 C 51.941406 21.183594 52.46875 21.660156 52.976562 22.164062 C 53.480469 22.671875 53.957031 23.199219 54.410156 23.75 C 54.863281 24.300781 55.289062 24.875 55.683594 25.46875 C 56.082031 26.058594 56.445312 26.671875 56.785156 27.300781 C 57.121094 27.929688 57.425781 28.574219 57.699219 29.234375 C 57.96875 29.894531 58.210938 30.5625 58.417969 31.246094 C 58.625 31.929688 58.796875 32.621094 58.9375 33.320312 C 59.074219 34.019531 59.179688 34.726562 59.25 35.433594 C 59.320312 36.144531 59.355469 36.855469 59.355469 37.570312 Z M 59.355469 37.570312 "/>
</g>
<path style=" stroke:none;fill-rule:nonzero;fill:rgb(100%,100%,100%);fill-opacity:1;" d="M 50.097656 29.777344 L 45.359375 25.042969 L 37.570312 32.835938 L 29.777344 25.042969 L 25.042969 29.777344 L 32.835938 37.570312 L 25.042969 45.363281 L 29.777344 50.097656 L 37.570312 42.304688 L 45.359375 50.097656 L 50.097656 45.363281 L 42.304688 37.570312 Z M 50.097656 29.777344 "/>
</g>
</svg>
