<?xml version="1.0" encoding="UTF-8"?>
<svg xmlns="http://www.w3.org/2000/svg" xmlns:xlink="http://www.w3.org/1999/xlink" width="36pt" height="36.000001pt" viewBox="0 0 36 36.000001" version="1.2">
<defs>
<clipPath id="clip1">
  <path d="M 7 3.503906 L 28.859375 3.503906 L 28.859375 31.234375 L 7 31.234375 Z M 7 3.503906 "/>
</clipPath>
</defs>
<g id="surface1">
<g clip-path="url(#clip1)" clip-rule="nonzero">
<path style=" stroke:none;fill-rule:nonzero;fill:rgb(5.879211%,80.389404%,53.729248%);fill-opacity:1;" d="M 28.230469 8.105469 L 14.105469 8.105469 L 14.105469 5.25 C 14.105469 4.644531 14.601562 4.148438 15.210938 4.148438 L 27.125 4.148438 C 27.734375 4.148438 28.230469 4.644531 28.230469 5.25 Z M 27.097656 12.296875 L 15.238281 12.296875 L 15.238281 8.734375 L 27.097656 8.734375 Z M 26.035156 30.5625 L 16.300781 30.5625 C 15.714844 30.5625 15.238281 30.085938 15.238281 29.503906 L 15.238281 27.902344 C 15.285156 27.601562 15.300781 27.300781 15.28125 27 L 27.097656 27 L 27.097656 29.503906 C 27.097656 30.085938 26.621094 30.5625 26.035156 30.5625 Z M 13.683594 29.609375 C 12.457031 30.832031 10.507812 30.902344 9.195312 29.820312 L 13.898438 25.132812 C 14.269531 25.582031 14.507812 26.109375 14.605469 26.65625 L 14.605469 27.851562 C 14.488281 28.496094 14.183594 29.113281 13.683594 29.609375 Z M 8.960938 24.898438 C 9.613281 24.25 10.46875 23.925781 11.324219 23.925781 C 12.078125 23.925781 12.835938 24.179688 13.449219 24.6875 L 8.75 29.375 C 7.664062 28.070312 7.734375 26.121094 8.960938 24.898438 Z M 10.898438 23.300781 L 12.714844 21.488281 L 14.414062 19.796875 L 14.535156 19.675781 C 14.558594 19.648438 14.582031 19.625 14.605469 19.597656 L 14.605469 25.027344 C 14.46875 24.824219 14.308594 24.632812 14.128906 24.453125 C 13.242188 23.566406 12.039062 23.191406 10.878906 23.320312 C 10.882812 23.3125 10.890625 23.308594 10.898438 23.300781 Z M 8.445312 22.855469 C 8.179688 22.589844 8.03125 22.234375 8.03125 21.855469 C 8.03125 21.476562 8.179688 21.121094 8.445312 20.855469 L 10.042969 19.265625 L 12.046875 21.265625 L 10.453125 22.855469 C 10.183594 23.121094 9.828125 23.269531 9.449219 23.269531 C 9.070312 23.269531 8.714844 23.121094 8.445312 22.855469 Z M 12.492188 20.820312 L 10.488281 18.820312 L 11.960938 17.351562 C 12.582031 16.730469 13.535156 16.679688 14.085938 17.230469 C 14.640625 17.78125 14.585938 18.730469 13.964844 19.351562 Z M 27.097656 26.371094 L 15.238281 26.371094 L 15.238281 12.929688 L 27.097656 12.929688 Z M 27.125 3.519531 L 15.210938 3.519531 C 14.253906 3.519531 13.472656 4.296875 13.472656 5.25 L 13.472656 8.421875 C 13.472656 8.59375 13.617188 8.734375 13.789062 8.734375 L 14.605469 8.734375 L 14.605469 16.859375 C 14.582031 16.835938 14.558594 16.808594 14.535156 16.785156 C 14.144531 16.398438 13.632812 16.183594 13.085938 16.183594 C 12.535156 16.183594 12.023438 16.398438 11.636719 16.785156 L 9.816406 18.597656 L 8 20.410156 C 7.613281 20.796875 7.398438 21.308594 7.398438 21.855469 C 7.398438 22.402344 7.613281 22.914062 8 23.300781 C 8.335938 23.636719 8.765625 23.839844 9.230469 23.886719 C 8.976562 24.046875 8.734375 24.234375 8.515625 24.453125 C 6.964844 25.996094 6.964844 28.511719 8.515625 30.054688 C 9.289062 30.828125 10.304688 31.214844 11.324219 31.214844 C 12.339844 31.214844 13.355469 30.828125 14.128906 30.054688 C 14.308594 29.875 14.46875 29.683594 14.605469 29.480469 L 14.605469 29.503906 C 14.605469 30.433594 15.367188 31.191406 16.300781 31.191406 L 26.035156 31.191406 C 26.96875 31.191406 27.730469 30.433594 27.730469 29.503906 L 27.730469 8.734375 L 28.546875 8.734375 C 28.71875 8.734375 28.859375 8.59375 28.859375 8.421875 L 28.859375 5.25 C 28.859375 4.296875 28.082031 3.519531 27.125 3.519531 "/>
</g>
<path style=" stroke:none;fill-rule:nonzero;fill:rgb(5.879211%,80.389404%,53.729248%);fill-opacity:1;" d="M 21.734375 14.875 L 23.0625 14.875 C 23.5625 14.875 23.96875 15.277344 23.96875 15.777344 C 23.96875 16.273438 23.5625 16.679688 23.0625 16.679688 L 21.734375 16.679688 Z M 21.734375 17.308594 L 22.925781 17.308594 L 24.234375 19.269531 L 23.457031 20.4375 C 23.425781 20.488281 23.40625 20.539062 23.40625 20.59375 L 24.109375 20.59375 L 24.617188 19.839844 L 25.121094 20.59375 L 25.824219 20.59375 C 25.824219 20.539062 25.808594 20.488281 25.773438 20.4375 L 24.996094 19.269531 L 25.679688 18.246094 C 25.710938 18.199219 25.726562 18.144531 25.730469 18.089844 L 25.027344 18.089844 L 24.617188 18.703125 L 23.617188 17.207031 C 24.210938 16.980469 24.601562 16.417969 24.601562 15.777344 C 24.601562 14.929688 23.910156 14.242188 23.0625 14.242188 L 21.382812 14.242188 L 21.101562 14.527344 L 21.101562 18.851562 L 21.734375 18.851562 L 21.734375 17.308594 "/>
</g>
</svg>
