<svg xmlns="http://www.w3.org/2000/svg" width="545" height="541" viewBox="0 0 545 541">
  <g fill="none" fill-rule="evenodd" transform="translate(10 10)">
    <ellipse cx="262.5" cy="260.5" fill="#443266" stroke="#FFFFFF" stroke-width="20" rx="262.5" ry="260.5"/>
    <g fill="#FFFFFF" transform="translate(110 74)">
      <path fill-rule="nonzero" d="M312.647098,213.359705 C309.085413,209.785451 304.750614,208 299.654078,208 L218.051941,208 C215.378502,215.145156 210.886402,221.014415 204.580326,225.607777 C198.271572,230.20181 191.234551,232.500168 183.464576,232.500168 L134.536762,232.500168 C126.766118,232.500168 119.72642,230.20114 113.421682,225.607777 C107.114268,221.014415 102.624845,215.145826 99.9493978,208 L18.3459221,208 C13.2507251,208 8.9192722,209.785451 5.35089396,213.359705 C1.78318508,216.929936 0,221.268522 0,226.37412 L0,287.628562 C0,292.730808 1.78318508,297.074757 5.35089396,300.642306 C8.91860284,304.21522 13.2500558,306 18.3459221,306 L299.656755,306 C304.750614,306 309.085413,304.21522 312.649106,300.642306 C316.218154,297.070064 318,292.730808 318,287.628562 L318,226.37412 C318,221.268522 316.218154,216.93463 312.647098,213.359705 Z M240.98769,277.865907 C238.563924,280.290982 235.69637,281.505196 232.383689,281.505196 C229.071007,281.505196 226.207469,280.290982 223.784372,277.865907 C221.365292,275.443513 220.155751,272.570567 220.155751,269.25243 C220.155751,265.934294 221.365292,263.060007 223.784372,260.638954 C226.207469,258.216561 229.071007,256.999665 232.383689,256.999665 C235.69637,256.999665 238.563255,258.21589 240.98769,260.638954 C243.406102,263.059336 244.616311,265.934294 244.616311,269.25243 C244.616311,272.570567 243.406102,275.442843 240.98769,277.865907 Z M289.907472,277.865907 C287.488391,280.290982 284.620837,281.505196 281.307486,281.505196 C277.995474,281.505196 275.129928,280.290982 272.70817,277.865907 C270.289759,275.443513 269.080218,272.570567 269.080218,269.25243 C269.080218,265.934294 270.289759,263.060007 272.70817,260.638954 C275.129259,258.216561 277.994805,256.999665 281.307486,256.999665 C284.620168,256.999665 287.487722,258.21589 289.907472,260.638954 C292.328561,263.059336 293.540109,265.934294 293.540109,269.25243 C293.540109,272.570567 292.330569,275.442843 289.907472,277.865907 Z"/>
      <path d="M73.4200866,110.117056 L122.322192,110.117056 L122.322192,195.763879 C122.322192,199.077019 123.53255,201.945551 125.951261,204.366125 C128.371309,206.78536 131.236962,208 134.546882,208 L183.45367,208 C186.764259,208 189.627236,206.78603 192.049291,204.366125 C194.467332,201.94622 195.676353,199.077689 195.676353,195.763879 L195.676353,110.117056 L244.579796,110.117056 C249.930398,110.117056 253.687929,107.566581 255.849714,102.470317 C258.015514,97.5006068 257.122297,93.1027276 253.175417,89.2786886 L167.594559,3.63320532 C165.300297,1.21129164 162.438658,0 158.998938,0 C155.562563,0 152.69691,1.21129164 150.403317,3.63320532 L64.8251346,89.2786886 C60.8762473,93.1027276 59.985707,97.4979285 62.1494992,102.470317 C64.3166368,107.569259 68.0728301,110.117056 73.4200866,110.117056 Z"/>
    </g>
  </g>
</svg>
