<?xml version="1.0" encoding="UTF-8"?>
<svg xmlns="http://www.w3.org/2000/svg" xmlns:xlink="http://www.w3.org/1999/xlink" width="36pt" height="36.000001pt" viewBox="0 0 36 36.000001" version="1.2">
<defs>
<clipPath id="clip1">
  <path d="M 28 3.503906 L 31.648438 3.503906 L 31.648438 7 L 28 7 Z M 28 3.503906 "/>
</clipPath>
<clipPath id="clip2">
  <path d="M 27 3.503906 L 30 3.503906 L 30 5 L 27 5 Z M 27 3.503906 "/>
</clipPath>
<clipPath id="clip3">
  <path d="M 30 6 L 31.648438 6 L 31.648438 8 L 30 8 Z M 30 6 "/>
</clipPath>
<clipPath id="clip4">
  <path d="M 3.917969 25 L 11 25 L 11 31.234375 L 3.917969 31.234375 Z M 3.917969 25 "/>
</clipPath>
</defs>
<g id="surface1">
<path style=" stroke:none;fill-rule:nonzero;fill:rgb(5.879211%,80.389404%,53.729248%);fill-opacity:1;" d="M 15.675781 20.910156 C 15.554688 20.910156 15.457031 20.816406 15.457031 20.695312 C 15.457031 20.574219 15.550781 20.480469 15.671875 20.480469 L 15.675781 20.480469 C 15.792969 20.480469 15.890625 20.574219 15.890625 20.695312 C 15.890625 20.816406 15.792969 20.910156 15.675781 20.910156 Z M 15.675781 20.910156 "/>
<g clip-path="url(#clip1)" clip-rule="nonzero">
<path style=" stroke:none;fill-rule:nonzero;fill:rgb(5.879211%,80.389404%,53.729248%);fill-opacity:1;" d="M 31.242188 6.519531 C 31.1875 6.519531 31.132812 6.496094 31.089844 6.453125 L 28.644531 4.003906 C 28.5625 3.917969 28.5625 3.78125 28.644531 3.699219 C 28.730469 3.613281 28.867188 3.613281 28.953125 3.699219 L 31.394531 6.148438 C 31.480469 6.234375 31.480469 6.371094 31.394531 6.453125 C 31.355469 6.496094 31.296875 6.519531 31.242188 6.519531 Z M 31.242188 6.519531 "/>
</g>
<g clip-path="url(#clip2)" clip-rule="nonzero">
<path style=" stroke:none;fill-rule:nonzero;fill:rgb(5.879211%,80.389404%,53.729248%);fill-opacity:1;" d="M 28.1875 4.679688 C 28.132812 4.679688 28.078125 4.660156 28.035156 4.617188 C 27.78125 4.363281 27.78125 3.953125 28.035156 3.699219 C 28.15625 3.574219 28.320312 3.507812 28.492188 3.507812 C 28.496094 3.507812 28.496094 3.507812 28.496094 3.507812 C 28.667969 3.507812 28.828125 3.574219 28.953125 3.699219 C 29.035156 3.78125 29.035156 3.921875 28.949219 4.003906 C 28.867188 4.089844 28.730469 4.089844 28.644531 4.003906 C 28.605469 3.964844 28.550781 3.941406 28.496094 3.941406 C 28.492188 3.941406 28.492188 3.941406 28.492188 3.941406 C 28.4375 3.941406 28.382812 3.964844 28.339844 4.003906 C 28.257812 4.089844 28.257812 4.226562 28.339844 4.308594 C 28.425781 4.394531 28.425781 4.53125 28.339844 4.617188 C 28.296875 4.660156 28.242188 4.679688 28.1875 4.679688 Z M 28.1875 4.679688 "/>
</g>
<g clip-path="url(#clip3)" clip-rule="nonzero">
<path style=" stroke:none;fill-rule:nonzero;fill:rgb(5.879211%,80.389404%,53.729248%);fill-opacity:1;" d="M 30.9375 7.257812 C 30.769531 7.257812 30.605469 7.195312 30.480469 7.066406 C 30.394531 6.984375 30.394531 6.847656 30.480469 6.761719 C 30.5625 6.675781 30.699219 6.675781 30.785156 6.761719 C 30.867188 6.84375 31.007812 6.84375 31.089844 6.761719 C 31.175781 6.675781 31.175781 6.539062 31.089844 6.453125 C 31.007812 6.371094 31.007812 6.234375 31.089844 6.148438 C 31.175781 6.0625 31.3125 6.0625 31.394531 6.148438 C 31.648438 6.402344 31.648438 6.8125 31.398438 7.066406 C 31.269531 7.195312 31.101562 7.257812 30.9375 7.257812 Z M 30.9375 7.257812 "/>
</g>
<path style=" stroke:none;fill-rule:nonzero;fill:rgb(5.879211%,80.389404%,53.729248%);fill-opacity:1;" d="M 26.050781 12.769531 C 25.882812 12.769531 25.71875 12.707031 25.589844 12.578125 C 25.507812 12.496094 25.507812 12.359375 25.589844 12.273438 C 25.675781 12.1875 25.8125 12.1875 25.898438 12.273438 C 25.980469 12.359375 26.117188 12.359375 26.203125 12.273438 C 26.285156 12.1875 26.285156 12.050781 26.203125 11.964844 C 26.117188 11.882812 26.117188 11.746094 26.203125 11.660156 C 26.285156 11.574219 26.425781 11.578125 26.507812 11.660156 C 26.761719 11.914062 26.761719 12.328125 26.507812 12.578125 C 26.382812 12.707031 26.214844 12.769531 26.050781 12.769531 Z M 26.050781 12.769531 "/>
<path style=" stroke:none;fill-rule:nonzero;fill:rgb(5.879211%,80.389404%,53.729248%);fill-opacity:1;" d="M 22.6875 9.582031 C 22.632812 9.582031 22.578125 9.558594 22.535156 9.515625 C 22.414062 9.394531 22.347656 9.230469 22.347656 9.058594 C 22.347656 8.882812 22.414062 8.71875 22.535156 8.597656 C 22.660156 8.476562 22.820312 8.40625 22.996094 8.40625 C 23.167969 8.40625 23.332031 8.476562 23.453125 8.597656 C 23.535156 8.683594 23.535156 8.820312 23.453125 8.90625 C 23.367188 8.988281 23.230469 8.988281 23.148438 8.90625 C 23.105469 8.863281 23.050781 8.839844 22.996094 8.839844 C 22.9375 8.839844 22.882812 8.863281 22.839844 8.90625 C 22.800781 8.945312 22.777344 9 22.777344 9.058594 C 22.777344 9.113281 22.800781 9.167969 22.839844 9.210938 C 22.925781 9.296875 22.925781 9.433594 22.839844 9.515625 C 22.800781 9.558594 22.746094 9.582031 22.6875 9.582031 Z M 22.6875 9.582031 "/>
<path style=" stroke:none;fill-rule:nonzero;fill:rgb(5.879211%,80.389404%,53.729248%);fill-opacity:1;" d="M 30.632812 7.128906 C 30.578125 7.128906 30.519531 7.109375 30.480469 7.066406 L 28.035156 4.617188 C 27.949219 4.53125 27.949219 4.394531 28.035156 4.308594 C 28.121094 4.226562 28.257812 4.226562 28.339844 4.308594 L 30.785156 6.761719 C 30.867188 6.84375 30.867188 6.984375 30.785156 7.066406 C 30.742188 7.109375 30.6875 7.128906 30.632812 7.128906 Z M 30.632812 7.128906 "/>
<path style=" stroke:none;fill-rule:nonzero;fill:rgb(5.879211%,80.389404%,53.729248%);fill-opacity:1;" d="M 24.523438 9.582031 C 24.46875 9.582031 24.410156 9.558594 24.371094 9.515625 C 24.285156 9.433594 24.285156 9.296875 24.371094 9.210938 L 28.339844 5.230469 C 28.425781 5.144531 28.5625 5.144531 28.644531 5.230469 C 28.730469 5.3125 28.730469 5.453125 28.644531 5.535156 L 24.675781 9.515625 C 24.632812 9.558594 24.578125 9.582031 24.523438 9.582031 Z M 24.523438 9.582031 "/>
<path style=" stroke:none;fill-rule:nonzero;fill:rgb(5.879211%,80.389404%,53.729248%);fill-opacity:1;" d="M 25.746094 10.804688 C 25.6875 10.804688 25.632812 10.785156 25.589844 10.742188 C 25.507812 10.65625 25.507812 10.519531 25.589844 10.4375 L 29.5625 6.453125 C 29.648438 6.371094 29.785156 6.371094 29.867188 6.453125 C 29.953125 6.539062 29.953125 6.675781 29.867188 6.761719 L 25.898438 10.742188 C 25.855469 10.785156 25.800781 10.804688 25.746094 10.804688 Z M 25.746094 10.804688 "/>
<path style=" stroke:none;fill-rule:nonzero;fill:rgb(5.879211%,80.389404%,53.729248%);fill-opacity:1;" d="M 26.355469 12.03125 C 26.300781 12.03125 26.246094 12.007812 26.203125 11.964844 L 23.148438 8.90625 C 23.0625 8.820312 23.0625 8.683594 23.148438 8.597656 C 23.230469 8.515625 23.367188 8.515625 23.453125 8.597656 L 26.507812 11.660156 C 26.59375 11.746094 26.59375 11.882812 26.507812 11.964844 C 26.464844 12.007812 26.410156 12.03125 26.355469 12.03125 Z M 26.355469 12.03125 "/>
<path style=" stroke:none;fill-rule:nonzero;fill:rgb(5.879211%,80.389404%,53.729248%);fill-opacity:1;" d="M 25.746094 12.644531 C 25.6875 12.644531 25.632812 12.621094 25.589844 12.578125 L 22.535156 9.515625 C 22.453125 9.433594 22.453125 9.296875 22.535156 9.210938 C 22.621094 9.125 22.757812 9.125 22.839844 9.210938 L 25.898438 12.273438 C 25.980469 12.359375 25.980469 12.496094 25.898438 12.578125 C 25.855469 12.621094 25.800781 12.644531 25.746094 12.644531 Z M 25.746094 12.644531 "/>
<path style=" stroke:none;fill-rule:nonzero;fill:rgb(5.879211%,80.389404%,53.729248%);fill-opacity:1;" d="M 12.914062 19.992188 C 12.859375 19.992188 12.800781 19.972656 12.761719 19.929688 C 12.675781 19.84375 12.675781 19.707031 12.761719 19.625 L 22.535156 9.824219 C 22.621094 9.738281 22.757812 9.738281 22.839844 9.824219 C 22.925781 9.90625 22.925781 10.042969 22.839844 10.128906 L 13.066406 19.929688 C 13.023438 19.972656 12.96875 19.992188 12.914062 19.992188 Z M 12.914062 19.992188 "/>
<path style=" stroke:none;fill-rule:nonzero;fill:rgb(5.879211%,80.389404%,53.729248%);fill-opacity:1;" d="M 15.355469 22.441406 C 15.300781 22.441406 15.246094 22.421875 15.203125 22.378906 C 15.121094 22.296875 15.121094 22.15625 15.203125 22.074219 L 24.980469 12.273438 C 25.0625 12.1875 25.199219 12.1875 25.285156 12.273438 C 25.371094 12.359375 25.371094 12.496094 25.285156 12.578125 L 15.507812 22.378906 C 15.46875 22.421875 15.410156 22.441406 15.355469 22.441406 Z M 15.355469 22.441406 "/>
<path style=" stroke:none;fill-rule:nonzero;fill:rgb(5.879211%,80.389404%,53.729248%);fill-opacity:1;" d="M 14.929688 22.519531 C 14.707031 22.519531 14.433594 22.492188 14.101562 22.441406 C 13.984375 22.421875 13.902344 22.3125 13.921875 22.191406 C 13.941406 22.074219 14.050781 21.996094 14.167969 22.011719 C 14.628906 22.085938 15.121094 22.105469 15.222656 22.058594 C 15.308594 21.972656 15.433594 21.980469 15.519531 22.066406 C 15.605469 22.152344 15.59375 22.296875 15.507812 22.378906 C 15.417969 22.472656 15.222656 22.519531 14.929688 22.519531 Z M 14.929688 22.519531 "/>
<path style=" stroke:none;fill-rule:nonzero;fill:rgb(5.879211%,80.389404%,53.729248%);fill-opacity:1;" d="M 12.914062 21.21875 C 12.808594 21.21875 12.714844 21.140625 12.699219 21.035156 C 12.578125 20.261719 12.597656 19.785156 12.761719 19.625 C 12.84375 19.539062 12.980469 19.539062 13.066406 19.625 C 13.144531 19.703125 13.148438 19.832031 13.078125 19.914062 C 13.03125 20.027344 13.054688 20.515625 13.125 20.96875 C 13.144531 21.085938 13.066406 21.195312 12.945312 21.214844 C 12.933594 21.21875 12.925781 21.21875 12.914062 21.21875 Z M 12.914062 21.21875 "/>
<path style=" stroke:none;fill-rule:nonzero;fill:rgb(5.879211%,80.389404%,53.729248%);fill-opacity:1;" d="M 13.246094 21.554688 C 13.191406 21.554688 13.136719 21.53125 13.09375 21.488281 L 12.761719 21.15625 C 12.675781 21.070312 12.675781 20.933594 12.761719 20.847656 C 12.84375 20.765625 12.980469 20.765625 13.066406 20.847656 L 13.398438 21.183594 C 13.484375 21.269531 13.484375 21.40625 13.398438 21.488281 C 13.359375 21.53125 13.300781 21.554688 13.246094 21.554688 Z M 13.246094 21.554688 "/>
<path style=" stroke:none;fill-rule:nonzero;fill:rgb(5.879211%,80.389404%,53.729248%);fill-opacity:1;" d="M 14.136719 22.441406 C 14.078125 22.441406 14.023438 22.421875 13.980469 22.378906 L 13.675781 22.074219 C 13.59375 21.988281 13.59375 21.851562 13.675781 21.765625 C 13.761719 21.683594 13.898438 21.683594 13.980469 21.765625 L 14.289062 22.074219 C 14.371094 22.160156 14.371094 22.296875 14.289062 22.378906 C 14.246094 22.421875 14.191406 22.441406 14.136719 22.441406 Z M 14.136719 22.441406 "/>
<path style=" stroke:none;fill-rule:nonzero;fill:rgb(5.879211%,80.389404%,53.729248%);fill-opacity:1;" d="M 12.300781 21.832031 C 12.246094 21.832031 12.191406 21.808594 12.148438 21.765625 C 12.066406 21.683594 12.066406 21.546875 12.148438 21.460938 L 12.761719 20.847656 C 12.84375 20.765625 12.980469 20.765625 13.066406 20.847656 C 13.148438 20.933594 13.148438 21.070312 13.066406 21.15625 L 12.453125 21.765625 C 12.414062 21.808594 12.355469 21.832031 12.300781 21.832031 Z M 12.300781 21.832031 "/>
<path style=" stroke:none;fill-rule:nonzero;fill:rgb(5.879211%,80.389404%,53.729248%);fill-opacity:1;" d="M 13.523438 23.054688 C 13.46875 23.054688 13.414062 23.035156 13.371094 22.992188 C 13.285156 22.90625 13.285156 22.769531 13.371094 22.6875 L 13.980469 22.074219 C 14.066406 21.988281 14.203125 21.988281 14.289062 22.074219 C 14.371094 22.15625 14.371094 22.296875 14.289062 22.378906 L 13.675781 22.992188 C 13.632812 23.035156 13.578125 23.054688 13.523438 23.054688 Z M 13.523438 23.054688 "/>
<path style=" stroke:none;fill-rule:nonzero;fill:rgb(5.879211%,80.389404%,53.729248%);fill-opacity:1;" d="M 13.371094 23.515625 C 13.316406 23.515625 13.261719 23.492188 13.21875 23.453125 L 11.691406 21.921875 C 11.605469 21.835938 11.605469 21.699219 11.691406 21.613281 C 11.773438 21.53125 11.910156 21.53125 11.996094 21.613281 L 13.523438 23.144531 C 13.609375 23.230469 13.609375 23.367188 13.523438 23.453125 C 13.480469 23.492188 13.425781 23.515625 13.371094 23.515625 Z M 13.371094 23.515625 "/>
<path style=" stroke:none;fill-rule:nonzero;fill:rgb(5.879211%,80.389404%,53.729248%);fill-opacity:1;" d="M 10.164062 25.8125 C 10.101562 25.8125 10.035156 25.785156 9.996094 25.730469 C 9.917969 25.636719 9.933594 25.5 10.027344 25.425781 L 13.082031 22.976562 C 13.175781 22.902344 13.3125 22.917969 13.386719 23.011719 C 13.460938 23.101562 13.445312 23.238281 13.355469 23.316406 L 10.296875 25.765625 C 10.257812 25.796875 10.210938 25.8125 10.164062 25.8125 Z M 10.164062 25.8125 "/>
<path style=" stroke:none;fill-rule:nonzero;fill:rgb(5.879211%,80.389404%,53.729248%);fill-opacity:1;" d="M 9.550781 25.199219 C 9.503906 25.199219 9.457031 25.183594 9.417969 25.152344 C 9.324219 25.078125 9.308594 24.941406 9.382812 24.847656 L 11.828125 21.785156 C 11.902344 21.691406 12.039062 21.675781 12.132812 21.75 C 12.226562 21.824219 12.238281 21.960938 12.164062 22.054688 L 9.722656 25.117188 C 9.679688 25.171875 9.617188 25.199219 9.550781 25.199219 Z M 9.550781 25.199219 "/>
<path style=" stroke:none;fill-rule:nonzero;fill:rgb(5.879211%,80.389404%,53.729248%);fill-opacity:1;" d="M 10.164062 25.8125 C 10.109375 25.8125 10.050781 25.789062 10.011719 25.75 L 9.398438 25.136719 C 9.316406 25.050781 9.316406 24.914062 9.398438 24.828125 C 9.484375 24.746094 9.621094 24.746094 9.703125 24.828125 L 10.316406 25.441406 C 10.398438 25.527344 10.398438 25.664062 10.316406 25.75 C 10.273438 25.789062 10.21875 25.8125 10.164062 25.8125 Z M 10.164062 25.8125 "/>
<g clip-path="url(#clip4)" clip-rule="nonzero">
<path style=" stroke:none;fill-rule:nonzero;fill:rgb(5.879211%,80.389404%,53.729248%);fill-opacity:1;" d="M 4.15625 31.222656 C 4.097656 31.222656 4.042969 31.199219 4.003906 31.160156 C 3.917969 31.074219 3.917969 30.9375 4.003906 30.851562 L 9.703125 25.136719 C 9.789062 25.050781 9.925781 25.050781 10.011719 25.136719 C 10.09375 25.222656 10.09375 25.359375 10.011719 25.441406 L 4.308594 31.160156 C 4.265625 31.199219 4.210938 31.222656 4.15625 31.222656 Z M 4.15625 31.222656 "/>
</g>
<path style=" stroke:none;fill-rule:nonzero;fill:rgb(5.879211%,80.389404%,53.729248%);fill-opacity:1;" d="M 20.246094 16.929688 C 20.191406 16.929688 20.132812 16.910156 20.09375 16.867188 L 18.257812 15.03125 C 18.175781 14.945312 18.175781 14.808594 18.257812 14.722656 C 18.34375 14.640625 18.480469 14.640625 18.566406 14.722656 L 20.398438 16.5625 C 20.480469 16.644531 20.480469 16.78125 20.398438 16.867188 C 20.355469 16.910156 20.300781 16.929688 20.246094 16.929688 Z M 20.246094 16.929688 "/>
<path style=" stroke:none;fill-rule:nonzero;fill:rgb(5.879211%,80.389404%,53.729248%);fill-opacity:1;" d="M 19.632812 17.542969 C 19.578125 17.542969 19.523438 17.523438 19.480469 17.480469 L 17.648438 15.640625 C 17.5625 15.558594 17.5625 15.421875 17.648438 15.335938 C 17.730469 15.25 17.867188 15.25 17.953125 15.335938 L 19.785156 17.171875 C 19.871094 17.257812 19.871094 17.394531 19.785156 17.480469 C 19.746094 17.523438 19.6875 17.542969 19.632812 17.542969 Z M 19.632812 17.542969 "/>
<path style=" stroke:none;fill-rule:nonzero;fill:rgb(5.879211%,80.389404%,53.729248%);fill-opacity:1;" d="M 19.023438 15.09375 C 18.96875 15.09375 18.914062 15.070312 18.871094 15.03125 C 18.785156 14.945312 18.785156 14.808594 18.871094 14.722656 L 23.148438 10.4375 C 23.230469 10.351562 23.367188 10.351562 23.453125 10.4375 C 23.535156 10.519531 23.535156 10.65625 23.453125 10.742188 L 19.175781 15.03125 C 19.132812 15.070312 19.078125 15.09375 19.023438 15.09375 Z M 19.023438 15.09375 "/>
<path style=" stroke:none;fill-rule:nonzero;fill:rgb(5.879211%,80.389404%,53.729248%);fill-opacity:1;" d="M 20.246094 16.316406 C 20.191406 16.316406 20.132812 16.296875 20.09375 16.253906 C 20.007812 16.171875 20.007812 16.03125 20.09375 15.949219 L 24.371094 11.660156 C 24.453125 11.574219 24.589844 11.574219 24.675781 11.660156 C 24.757812 11.746094 24.757812 11.882812 24.675781 11.964844 L 20.398438 16.253906 C 20.355469 16.296875 20.300781 16.316406 20.246094 16.316406 Z M 20.246094 16.316406 "/>
<path style=" stroke:none;fill-rule:nonzero;fill:rgb(5.879211%,80.389404%,53.729248%);fill-opacity:1;" d="M 15.355469 19.8125 C 15.183594 19.8125 15.019531 19.746094 14.898438 19.625 C 14.777344 19.5 14.707031 19.335938 14.707031 19.164062 C 14.707031 18.992188 14.777344 18.828125 14.898438 18.703125 C 15.144531 18.460938 15.570312 18.460938 15.816406 18.703125 C 15.9375 18.828125 16.003906 18.992188 16.003906 19.164062 C 16.003906 19.335938 15.9375 19.5 15.816406 19.625 C 15.691406 19.746094 15.53125 19.8125 15.355469 19.8125 Z M 15.355469 18.949219 C 15.300781 18.949219 15.246094 18.96875 15.203125 19.011719 C 15.164062 19.050781 15.140625 19.105469 15.140625 19.164062 C 15.140625 19.222656 15.164062 19.277344 15.203125 19.316406 C 15.285156 19.398438 15.429688 19.398438 15.507812 19.316406 C 15.550781 19.277344 15.574219 19.222656 15.574219 19.164062 C 15.574219 19.105469 15.550781 19.050781 15.507812 19.011719 C 15.46875 18.96875 15.414062 18.949219 15.355469 18.949219 Z M 15.355469 18.949219 "/>
</g>
</svg>
