<svg xmlns="http://www.w3.org/2000/svg" width="546" height="541" viewBox="0 0 546 541">
  <g fill="none" fill-rule="evenodd" transform="translate(10.5 10)">
    <ellipse cx="262.5" cy="260.5" fill="#443266" stroke="#FFFFFF" stroke-width="20" rx="262.5" ry="260.5"/>
    <g fill="#FFFFFF" transform="translate(94 94)">
      <path d="M249,273.267315 C249,279.746652 241.568577,285 232.400418,285 L16.5995823,285 C7.43142287,285 0,279.746652 0,273.267315 L0,120.73338 C0,114.252653 7.43142287,109 16.5995823,109 L232.400418,109 C241.568577,109 249,114.254042 249,120.73338 L249,273.267315 Z"/>
      <circle cx="61.5" cy="62.5" r="41.5"/>
      <circle cx="176.5" cy="51.5" r="51.5"/>
      <path d="M342,290.65059 C342,290.65059 340.617583,301 330.933008,301 C321.24913,301 259,243.072748 259,235.450266 L259,159.550428 C259,151.928641 319.867409,94 330.933008,94 C342,94 342,104.350104 342,104.350104 L342,290.65059 Z"/>
    </g>
  </g>
</svg>
